<?xml version="1.0" encoding="UTF-8"?><svg id="Layer_2" xmlns="http://www.w3.org/2000/svg" width="136" height="48.1152" viewBox="0 0 136 48.1152"><defs><style>.cls-1{fill:none;}.cls-2{fill:#231f20;}.cls-3{isolation:isolate;}.cls-4{fill:#151515;}</style></defs><rect class="cls-1" width="136" height="48"/><g class="cls-3"><g class="cls-3"><path class="cls-2" d="M45.3872,35.7949h1.7568l3.5562,9.2402h-1.8623l-.7207-1.9951h-3.6963l-.7349,1.9951h-1.8691l3.5703-9.2402ZM44.9951,41.4932h2.5479l-1.2671-3.584h-.021l-1.2598,3.584Z"/><path class="cls-2" d="M51.498,45.0352v-9.6318h1.7778v4.8154c.0371-.1348.147-.2891.3291-.4619.1816-.1719.4233-.3213.7241-.4473.3013-.126.6431-.1895,1.0259-.1895.5503,0,1.0322.1328,1.4453.3994.4131.2656.7349.6289.9658,1.0879.2314.46.3467.9795.3467,1.5576,0,.5791-.1152,1.0977-.3467,1.5576-.231.46-.5527.8213-.9658,1.085s-.895.3955-1.4453.3955c-.3408,0-.6572-.0625-.9487-.1895-.2915-.126-.5366-.2793-.7349-.4619-.1982-.1816-.3374-.3545-.4165-.5176v1.001h-1.7568ZM56.3628,42.165c0-.3223-.0679-.6055-.2031-.8506s-.3174-.4365-.5459-.5742c-.2285-.1367-.4829-.2061-.7627-.2061-.2944,0-.5601.0703-.7983.21-.2378.1396-.4268.332-.5669.5771s-.21.5264-.21.8438.0698.5986.21.8438.3291.4365.5669.5742c.2383.1377.5039.2061.7983.2061.2798,0,.5342-.0674.7627-.2031.2285-.1348.4106-.3252.5459-.5703s.2031-.5283.2031-.8506Z"/><path class="cls-2" d="M61.9771,45.2031c-.6113,0-1.1562-.1309-1.6343-.3916-.4785-.2617-.853-.6201-1.1235-1.0752s-.4062-.9736-.4062-1.5576c0-.583.1357-1.1045.4062-1.5645.2705-.459.645-.8232,1.1235-1.0918.478-.2686,1.0229-.4023,1.6343-.4023.6162,0,1.1597.1338,1.6313.4023.4712.2686.8398.6328,1.106,1.0918.2656.46.3989.9814.3989,1.5645,0,.584-.1333,1.1025-.3989,1.5576-.2661.4551-.6348.8135-1.106,1.0752-.4717.2607-1.0151.3916-1.6313.3916ZM61.9771,43.7266c.2939,0,.5498-.0674.7666-.2002.2173-.1328.3853-.3174.5039-.5527.1191-.2354.1787-.5029.1787-.8018,0-.2979-.0596-.5664-.1787-.8047-.1187-.2383-.2866-.4258-.5039-.5635-.2168-.1377-.4727-.207-.7666-.207s-.5493.0693-.7661.207c-.2173.1377-.3862.3252-.5078.5635-.1211.2383-.1821.5068-.1821.8047,0,.2988.061.5664.1821.8018.1216.2354.2905.4199.5078.5527.2168.1328.4722.2002.7661.2002Z"/></g><g class="cls-3"><path class="cls-2" d="M67.6445,42.0391c0,.5137.1025.9229.3076,1.2285.2056.3057.5366.459.9941.459.4619,0,.7949-.1533,1.001-.459.2051-.3057.3076-.7148.3076-1.2285v-2.751h1.75v2.9541c0,.5928-.1191,1.1123-.3564,1.5576-.2383.4453-.585.791-1.04,1.0361s-1.0088.3672-1.6621.3672c-.6484,0-1.2007-.1221-1.6553-.3672-.4551-.2451-.8018-.5908-1.0396-1.0361-.2383-.4453-.3569-.9648-.3569-1.5576v-2.9541h1.75v2.751Z"/></g><g class="cls-3"><path class="cls-2" d="M72.584,39.2881h1.0361v-2.3594h1.7646v2.3594h1.3574v1.4775h-1.3574v2.0781c0,.2754.0439.4893.1328.6406.0879.1523.2285.2275.4199.2275.1445,0,.2637-.0293.3564-.0869.0938-.0586.1494-.0996.1689-.123l.6289,1.2744c-.0273.0273-.1172.0771-.2695.1465-.1514.0703-.3457.1348-.5801.1924-.2363.0586-.501.0879-.7949.0879-.5273,0-.9639-.1533-1.3086-.458-.3457-.3057-.5186-.7812-.5186-1.4248v-2.5547h-1.0361v-1.4775Z"/><path class="cls-2" d="M87.1309,35.7949h1.75v5.6982c0,.7607-.1514,1.4189-.4521,1.9736-.3008.5557-.7236.9834-1.2666,1.2852-.5439.3008-1.1846.4512-1.9219.4512-.7422,0-1.3867-.1504-1.9355-.4512-.5488-.3018-.9727-.7295-1.2734-1.2852-.3018-.5547-.4521-1.2129-.4521-1.9736v-5.6982h1.7432v5.6074c0,.4668.0801.8643.2412,1.1934s.3857.5791.6758.749c.2891.1699.623.2559,1.001.2559.373,0,.7021-.0859.9863-.2559.2852-.1699.5068-.4199.666-.749.1582-.3291.2383-.7266.2383-1.1934v-5.6074Z"/><path class="cls-2" d="M92.1631,39.1201c.3447,0,.665.0312.959.0947.2939.0625.542.1338.7451.2129.2031.0801.3379.1475.4023.2031l-.6084,1.0713c-.0938-.0742-.2607-.1631-.501-.2656s-.5078-.1543-.8008-.1543c-.2666,0-.4902.0459-.6719.1367-.1826.0908-.2734.2275-.2734.4092s.0977.3271.2939.4336c.1963.1074.4697.2012.8193.2803.293.0605.583.1533.8672.2764.2852.124.5215.3018.707.5322.1875.2314.2803.5381.2803.9209,0,.3779-.0811.6914-.2412.9414-.1611.249-.375.4463-.6406.5908-.2656.1455-.5576.248-.875.3086s-.6328.0908-.9453.0908c-.4062,0-.7627-.0381-1.0703-.1152-.3086-.0771-.5615-.166-.7598-.2666-.1992-.0996-.3398-.1855-.4238-.2549l.6094-1.1904c.1211.1074.3203.2256.5977.3535.2783.1289.5781.1924.9004.1924.3359,0,.6006-.0576.7949-.1748.1934-.1162.29-.2725.29-.4688,0-.1445-.0469-.2627-.1396-.3535-.0938-.0908-.2227-.167-.3857-.2275s-.3545-.1143-.5732-.1611c-.2012-.042-.4062-.1035-.6172-.1855-.209-.0811-.4053-.1904-.5879-.3252-.1816-.1357-.3281-.3047-.4404-.5078s-.168-.4463-.168-.7314c0-.3643.1162-.6689.3506-.9131.2324-.2451.5361-.4316.9092-.5605.374-.1279.7725-.1924,1.1973-.1924Z"/></g></g><path id="Vector" class="cls-4" d="M68,3.415c-2.72,0-5.38.8-7.66,2.29-2.28,1.49-4.07,3.61-5.16,6.1s-1.44,5.24-.99,7.92c.45,2.68,1.66,5.18,3.5,7.18,1.31,1.42,2.91,2.56,4.68,3.33,1.77.78,3.69,1.18,5.63,1.18s3.85-.4,5.63-1.18c1.77-.78,3.37-1.91,4.68-3.33,1.84-2,3.06-4.5,3.5-7.18.45-2.68.1-5.43-.99-7.92s-2.89-4.61-5.16-6.1c-2.28-1.49-4.94-2.28-7.66-2.29ZM68,28.635c-2.91,0-5.7-1.13-7.78-3.15.63-1.54,1.71-2.86,3.1-3.79,1.39-.93,3.02-1.42,4.69-1.42s3.3.5,4.69,1.42c1.39.93,2.46,2.25,3.1,3.79-2.09,2.02-4.88,3.15-7.78,3.15h-.02ZM65.19,14.625c0-.55.16-1.1.47-1.56s.75-.82,1.26-1.03,1.08-.27,1.62-.16c.54.11,1.04.38,1.44.77.39.39.66.89.77,1.44.11.54.05,1.11-.16,1.62-.21.51-.57.95-1.03,1.26s-1,.47-1.56.47c-.74,0-1.46-.3-1.98-.82-.53-.53-.82-1.24-.82-1.98l-.01-.01ZM77.69,23.035c-1.25-2.14-3.18-3.81-5.48-4.74.71-.81,1.18-1.81,1.34-2.87.16-1.07,0-2.16-.43-3.14-.44-.98-1.16-1.82-2.07-2.4-.91-.59-1.96-.9-3.04-.9s-2.14.31-3.04.9c-.91.59-1.63,1.42-2.07,2.4s-.6,2.07-.43,3.14c.16,1.07.63,2.06,1.34,2.87-2.3.93-4.23,2.6-5.48,4.74-1-1.7-1.53-3.63-1.53-5.61,0-2.97,1.18-5.83,3.29-7.93,2.1-2.1,4.96-3.28,7.93-3.28s5.83,1.18,7.93,3.28c2.1,2.1,3.29,4.95,3.29,7.93,0,1.97-.53,3.91-1.53,5.61h-.02Z"/></svg>