<?xml version="1.0" encoding="UTF-8"?><svg id="Layer_2" xmlns="http://www.w3.org/2000/svg" width="136" height="48" viewBox="0 0 136 48"><defs><style>.cls-1{fill:none;}.cls-2{fill:#231f20;}.cls-3{isolation:isolate;}.cls-4{fill:#151515;}</style></defs><rect class="cls-1" width="136" height="48"/><g id="Icon_Set_Wireframe"><path id="Vector" class="cls-4" d="M53.42,3.2998h29.16c.46,0,.91.18,1.24.51.33.33.51.77.51,1.24v24.5c0,.46-.18.91-.51,1.24s-.77.51-1.24.51h-29.16c-.46,0-.91-.18-1.24-.51s-.51-.77-.51-1.24V5.0498c0-.46.18-.91.51-1.24.33-.33.77-.51,1.24-.51ZM62.49,7.9798c-.72-.07-1.44.09-2.06.45s-1.12.9-1.43,1.55-.4,1.38-.28,2.09c.12.71.46,1.36.97,1.87.51.51,1.16.85,1.87.97s1.44.03,2.09-.28c.65-.31,1.19-.8,1.55-1.43.36-.62.51-1.34.45-2.06-.07-.81-.43-1.58-1.01-2.16-.58-.58-1.34-.94-2.16-1.01l.01.01ZM81.12,28.9698c.23,0,.45-.09.62-.26.16-.16.26-.39.26-.62v-6.39l-9.38-8.34-7.07,7.05,8.55,8.55h7.03l-.01.01ZM54,28.0898c0,.23.09.45.26.62.16.16.39.26.62.26h15.92l-10.9-10.9-5.89,4.91v5.12l-.01-.01Z"/></g><g class="cls-3"><g class="cls-3"><path class="cls-2" d="M39.3159,35.6797h1.7568l3.5562,9.2402h-1.8623l-.7207-1.9951h-3.6963l-.7349,1.9951h-1.8691l3.5703-9.2402ZM38.9238,41.3779h2.5479l-1.2671-3.584h-.021l-1.2598,3.584Z"/></g><g class="cls-3"><path class="cls-2" d="M44.3525,39.1729h1.0361v-2.3594h1.7642v2.3594h1.3579v1.4775h-1.3579v2.0781c0,.2754.0444.4893.1328.6406.0889.1523.2285.2275.4199.2275.1445,0,.2637-.0293.3569-.0869.0938-.0586.1494-.0996.1685-.123l.6299,1.2744c-.0283.0273-.1182.0771-.2695.1465-.1519.0703-.3457.1348-.5811.1924-.2358.0586-.5005.0879-.7944.0879-.5273,0-.9639-.1533-1.3091-.458-.3452-.3057-.5181-.7812-.5181-1.4248v-2.5547h-1.0361v-1.4775Z"/></g><g class="cls-3"><path class="cls-2" d="M48.9126,39.1729h1.0361v-2.3594h1.7642v2.3594h1.3579v1.4775h-1.3579v2.0781c0,.2754.0444.4893.1328.6406.0889.1523.2285.2275.4199.2275.1445,0,.2637-.0293.3569-.0869.0938-.0586.1494-.0996.1685-.123l.6299,1.2744c-.0283.0273-.1182.0771-.2695.1465-.1519.0703-.3457.1348-.5811.1924-.2358.0586-.5005.0879-.7944.0879-.5273,0-.9639-.1533-1.3091-.458-.3452-.3057-.5181-.7812-.5181-1.4248v-2.5547h-1.0361v-1.4775Z"/></g><g class="cls-3"><path class="cls-2" d="M55.6919,44.9199h-1.7783v-5.7471h1.7783v.9307h-.0352c.0327-.1113.1226-.2539.2695-.4268s.3511-.3271.6123-.4658c.2612-.1367.5762-.2061.9453-.2061.2656,0,.5073.0381.7241.1152.2173.0771.3721.1533.4658.2275l-.7002,1.4561c-.0605-.0742-.1738-.1514-.3394-.2305-.166-.0801-.3721-.1191-.6196-.1191-.2939,0-.5391.0801-.7349.2412-.1963.1611-.3433.3574-.4409.5879-.0981.2314-.147.4473-.147.6475v2.9893Z"/></g><g class="cls-3"><path class="cls-2" d="M63.3247,44.9199v-1.001c-.042.1025-.1494.2471-.3218.4336-.1729.1875-.4053.3564-.6968.5078s-.6333.2275-1.0254.2275c-.5508,0-1.0386-.1318-1.4629-.3955-.4248-.2637-.7573-.625-.9976-1.085-.2407-.46-.3608-.9785-.3608-1.5576,0-.5781.1201-1.0977.3608-1.5576.2402-.459.5728-.8223.9976-1.0879.4243-.2666.9121-.3994,1.4629-.3994.3823,0,.7148.0645.9976.1924.2822.1289.5107.2783.686.4482.1748.1699.2881.3232.3394.458v-.9307h1.7642v5.7471h-1.7432ZM60.2026,42.0498c0,.3223.0723.6055.2173.8506.1445.2451.3359.4355.5737.5703.2383.1357.4971.2031.7769.2031.2939,0,.5557-.0684.7842-.2061s.4097-.3291.5425-.5742.1997-.5264.1997-.8438-.0669-.5986-.1997-.8438-.314-.4375-.5425-.5771-.4902-.21-.7842-.21c-.2798,0-.5386.0693-.7769.2061-.2378.1377-.4292.3291-.5737.5742-.145.2451-.2173.5283-.2173.8506Z"/></g><g class="cls-3"><path class="cls-2" d="M69.2036,43.6738c.3027,0,.5508-.0508.7422-.1543.1914-.1025.3164-.1797.3779-.2305l.8252,1.2246c-.0645.0518-.1855.124-.3633.2168-.1777.0938-.4023.1768-.6758.249s-.584.1084-.9336.1084c-.6074,0-1.1509-.1221-1.6318-.3672-.4805-.2451-.8599-.5957-1.1372-1.0498-.2778-.4551-.4165-.998-.4165-1.6279,0-.6348.1387-1.1787.4165-1.6309.2773-.4531.6567-.8008,1.1372-1.043.481-.2432,1.0244-.3643,1.6318-.3643.3447,0,.6514.0371.9199.1123.2676.0742.4941.1592.6758.2549s.3076.1738.377.2344l-.8457,1.2324c-.0332-.0371-.0957-.0889-.1895-.1543s-.2158-.126-.3672-.1816c-.1523-.0557-.333-.084-.543-.084-.2568,0-.5005.0674-.7314.2031s-.4189.3242-.5635.5664c-.1445.2432-.2173.5283-.2173.8545s.0728.6123.2173.8574.3325.4355.5635.5703c.231.1357.4746.2031.7314.2031Z"/></g><g class="cls-3"><path class="cls-2" d="M71.5122,39.1729h1.0361v-2.3594h1.7646v2.3594h1.3574v1.4775h-1.3574v2.0781c0,.2754.0439.4893.1328.6406.0889.1523.2285.2275.4199.2275.1445,0,.2637-.0293.3564-.0869.0938-.0586.1494-.0996.1689-.123l.6299,1.2744c-.0283.0273-.1182.0771-.2695.1465-.1523.0703-.3457.1348-.5811.1924-.2363.0586-.501.0879-.7949.0879-.5273,0-.9639-.1533-1.3086-.458-.3457-.3057-.5186-.7812-.5186-1.4248v-2.5547h-1.0361v-1.4775Z"/><path class="cls-2" d="M77.9243,37.6885c-.2939,0-.542-.1025-.7451-.3076s-.3047-.4502-.3047-.7354c0-.2842.1025-.5312.3086-.7412.2051-.21.4521-.3154.7412-.3154.1914,0,.3662.0479.5254.1436.1582.0957.2871.2227.3848.3818.0986.1582.1475.3359.1475.5312,0,.2852-.1045.5303-.3115.7354-.208.2051-.4561.3076-.7461.3076ZM77.0151,44.9199v-5.7471h1.7705v5.7471h-1.7705Z"/><path class="cls-2" d="M83.23,45.0879c-.6113,0-1.1562-.1309-1.6338-.3916-.4785-.2617-.8535-.6201-1.124-1.0752s-.4062-.9736-.4062-1.5576c0-.583.1357-1.1045.4062-1.5645.2705-.459.6455-.8232,1.124-1.0918.4775-.2686,1.0225-.4023,1.6338-.4023.6162,0,1.1602.1338,1.6318.4023.4707.2686.8398.6328,1.1055,1.0918.2656.46.3994.9814.3994,1.5645,0,.584-.1338,1.1025-.3994,1.5576s-.6348.8135-1.1055,1.0752c-.4717.2607-1.0156.3916-1.6318.3916ZM83.23,43.6113c.2939,0,.5498-.0674.7666-.2002.2178-.1328.3857-.3174.5039-.5527.1191-.2354.1787-.5029.1787-.8018,0-.2979-.0596-.5664-.1787-.8047-.1182-.2383-.2861-.4258-.5039-.5635-.2168-.1377-.4727-.207-.7666-.207s-.5488.0693-.7656.207c-.2178.1377-.3867.3252-.5078.5635s-.1826.5068-.1826.8047c0,.2988.0615.5664.1826.8018s.29.4199.5078.5527c.2168.1328.4717.2002.7656.2002Z"/><path class="cls-2" d="M91.2241,39.0049c.3926,0,.7744.0801,1.1484.2412.373.1611.6797.417.9199.7666.2402.3506.3613.8076.3613,1.3721v3.5352h-1.7852v-3.2266c0-.4717-.1113-.8213-.333-1.0508-.2217-.2285-.5117-.3428-.8711-.3428-.2334,0-.4561.0645-.6689.1924-.2119.1289-.3848.3057-.5176.5322s-.1992.4844-.1992.7734v3.1221h-1.7783v-5.7471h1.7783v.917c.0508-.1582.168-.3223.3496-.4902s.4131-.3086.6934-.4229c.2793-.1143.5811-.1719.9023-.1719Z"/><path class="cls-2" d="M97.4478,39.0049c.3447,0,.665.0312.959.0947.2939.0625.542.1338.7451.2129.2031.0801.3369.1475.4023.2031l-.6084,1.0713c-.0938-.0742-.2607-.1631-.501-.2656s-.5078-.1543-.8018-.1543c-.2656,0-.4893.0459-.6719.1367-.1816.0908-.2725.2275-.2725.4092s.0977.3271.2939.4336c.1953.1074.4688.2012.8184.2803.2939.0605.584.1533.8682.2764.2852.124.5205.3018.707.5322.1865.2314.2803.5381.2803.9209,0,.3779-.0811.6914-.2412.9414-.1611.249-.375.4463-.6406.5908-.2666.1455-.5576.248-.875.3086s-.6328.0908-.9453.0908c-.4062,0-.7627-.0381-1.0713-.1152-.3076-.0771-.5605-.166-.7588-.2666-.1992-.0996-.3398-.1855-.4238-.2549l.6094-1.1904c.1211.1074.3203.2256.5977.3535.2783.1289.5781.1924.9004.1924.3359,0,.6006-.0576.7939-.1748.1934-.1162.291-.2725.291-.4688,0-.1445-.0469-.2627-.1406-.3535-.0928-.0908-.2217-.167-.3848-.2275s-.3545-.1143-.5742-.1611c-.2002-.042-.4062-.1035-.6162-.1855-.21-.0811-.4053-.1904-.5879-.3252-.1816-.1357-.3291-.3047-.4404-.5078-.1123-.2031-.168-.4463-.168-.7314,0-.3643.1162-.6689.3496-.9131.2334-.2451.5371-.4316.9102-.5605.373-.1279.7725-.1924,1.1973-.1924Z"/></g></g></svg>