<?xml version="1.0" encoding="UTF-8"?><svg id="Layer_2" xmlns="http://www.w3.org/2000/svg" width="136" height="48.21" viewBox="0 0 136 48.21"><defs><style>.cls-1{fill:none;}.cls-2{fill:#231f20;}.cls-3{isolation:isolate;}.cls-4{fill:#151515;}</style></defs><rect class="cls-1" width="136" height="48"/><g id="Icon_Set_Wireframe"><path id="Vector" class="cls-4" d="M68,13.3198c-.28,0-.55.08-.78.24s-.41.37-.52.63c-.11.26-.13.54-.08.81.05.27.19.52.38.72.2.2.45.33.72.38.27.05.55.03.81-.08.26-.11.47-.29.63-.52.15-.23.24-.5.24-.78,0-.37-.15-.73-.41-.99-.26-.26-.62-.41-.99-.41ZM77.8,3.5198h-19.6c-1.11,0-2.18.44-2.97,1.23-.79.79-1.23,1.86-1.23,2.97v14c0,1.11.44,2.18,1.23,2.97.79.79,1.86,1.23,2.97,1.23h16.22l5.18,5.19c.13.13.29.23.46.3s.35.1.54.1c.18,0,.37-.03.53-.11.26-.11.47-.28.63-.51.15-.23.24-.5.24-.78V7.7198c0-1.11-.44-2.18-1.23-2.97s-1.86-1.23-2.97-1.23ZM79.2,26.7498l-3.21-3.22c-.13-.13-.29-.23-.46-.3s-.35-.1-.54-.1h-16.8c-.37,0-.73-.15-.99-.41-.26-.26-.41-.62-.41-.99V7.7198c0-.37.15-.73.41-.99s.62-.41.99-.41h19.6c.37,0,.73.15.99.41.26.26.41.62.41.99v19.03h.01ZM62.4,13.3198c-.28,0-.55.08-.78.24s-.41.37-.52.63-.13.54-.08.81.19.52.38.72.45.33.72.38.55.03.81-.08c.26-.11.47-.29.63-.52s.24-.5.24-.78c0-.37-.15-.73-.41-.99-.26-.26-.62-.41-.99-.41ZM73.6,13.3198c-.28,0-.55.08-.78.24s-.41.37-.52.63c-.11.26-.13.54-.08.81.05.27.19.52.38.72s.45.33.72.38c.27.05.55.03.81-.08.26-.11.47-.29.63-.52.15-.23.24-.5.24-.78,0-.37-.15-.73-.41-.99-.26-.26-.62-.41-.99-.41Z"/></g><g class="cls-3"><g class="cls-3"><path class="cls-2" d="M41.7021,43.5693c.4854,0,.917-.0693,1.2949-.207s.6558-.2744.833-.4092l.749,1.4912c-.2148.1865-.5845.375-1.1094.5664-.5254.1914-1.1519.2871-1.8799.2871-.6812,0-1.3184-.1201-1.9106-.3604-.5928-.2402-1.1133-.5762-1.561-1.0078-.4482-.4316-.7983-.9385-1.0503-1.5195s-.3779-1.21-.3779-1.8867c0-.6758.125-1.3076.3745-1.8926.2495-.5859.5986-1.0957,1.0464-1.5303.4482-.4336.9697-.7725,1.5645-1.0146.5952-.2422,1.2334-.3643,1.9146-.3643.728,0,1.3545.0957,1.8799.2871.5249.1914.8945.3809,1.1094.5674l-.749,1.4902c-.1772-.1348-.4551-.2715-.833-.4092s-.8096-.2061-1.2949-.2061c-.4946,0-.9346.0791-1.3198.2373-.3848.1592-.7114.3799-.98.6621-.2681.2822-.4722.6074-.6123.9766-.1401.3682-.21.7607-.21,1.1758,0,.4199.0698.8154.21,1.1865s.3442.6973.6123.9795c.2686.2832.5952.5029.98.6621.3853.1582.8252.2383,1.3198.2383Z"/><path class="cls-2" d="M48.7299,45.2979c-.6113,0-1.1562-.1309-1.6343-.3916-.4785-.2617-.853-.6201-1.1235-1.0752s-.4062-.9736-.4062-1.5576c0-.583.1357-1.1045.4062-1.5645.2705-.459.645-.8232,1.1235-1.0918.478-.2686,1.0229-.4023,1.6343-.4023.6162,0,1.1597.1338,1.6313.4023.4712.2686.8398.6328,1.106,1.0918.2656.46.3989.9814.3989,1.5645,0,.584-.1333,1.1025-.3989,1.5576-.2661.4551-.6348.8135-1.106,1.0752-.4717.2607-1.0151.3916-1.6313.3916ZM48.7299,43.8213c.2939,0,.5498-.0674.7666-.2002.2173-.1328.3853-.3174.5039-.5527.1191-.2354.1787-.5029.1787-.8018,0-.2979-.0596-.5664-.1787-.8047-.1187-.2383-.2866-.4258-.5039-.5635-.2168-.1377-.4727-.207-.7666-.207s-.5493.0693-.7661.207c-.2173.1377-.3862.3252-.5078.5635-.1211.2383-.1821.5068-.1821.8047,0,.2988.061.5664.1821.8018.1216.2354.2905.4199.5078.5527.2168.1328.4722.2002.7661.2002Z"/><path class="cls-2" d="M56.7241,39.2148c.3921,0,.7744.0801,1.1479.2412s.6802.417.9204.7666c.2402.3506.3608.8076.3608,1.3721v3.5352h-1.7852v-3.2266c0-.4717-.1108-.8213-.3325-1.0508-.2217-.2285-.5122-.3428-.8716-.3428-.2334,0-.4561.0645-.6685.1924-.2124.1289-.3848.3057-.5181.5322-.1328.2266-.1992.4844-.1992.7734v3.1221h-1.7783v-5.7471h1.7783v.917c.0513-.1582.168-.3223.3496-.4902.1821-.168.4131-.3086.6934-.4229.2798-.1143.5811-.1719.9028-.1719Z"/><path class="cls-2" d="M60.0415,39.3828h1.0361v-2.3594h1.7642v2.3594h1.3579v1.4775h-1.3579v2.0781c0,.2754.0444.4893.1328.6406.0889.1523.2285.2275.4199.2275.1445,0,.2637-.0293.3569-.0869.0938-.0586.1494-.0996.1685-.123l.6299,1.2744c-.0283.0273-.1182.0771-.2695.1465-.1519.0703-.3457.1348-.5811.1924-.2358.0586-.5005.0879-.7944.0879-.5273,0-.9639-.1533-1.3091-.458-.3452-.3057-.5181-.7812-.5181-1.4248v-2.5547h-1.0361v-1.4775Z"/><path class="cls-2" d="M69.9677,45.1299v-1.001c-.042.1025-.1494.2471-.3223.4336-.1729.1875-.4053.3564-.6963.5078-.2915.1514-.6333.2275-1.0254.2275-.5508,0-1.0386-.1318-1.4629-.3955-.4248-.2637-.7573-.625-.9976-1.085-.2407-.46-.3608-.9785-.3608-1.5576,0-.5781.1201-1.0977.3608-1.5576.2402-.459.5728-.8223.9976-1.0879.4243-.2666.9121-.3994,1.4629-.3994.3823,0,.7148.0645.9976.1924.2817.1289.5103.2783.686.4482.1748.1699.2881.3232.3389.458v-.9307h1.7646v5.7471h-1.7432ZM66.8457,42.2598c0,.3223.0723.6055.2173.8506.1445.2451.3359.4355.5737.5703.2383.1357.4971.2031.7769.2031.2939,0,.5557-.0684.7837-.2061.2285-.1377.4102-.3291.543-.5742s.1992-.5264.1992-.8438-.0664-.5986-.1992-.8438-.3145-.4375-.543-.5771c-.228-.1396-.4897-.21-.7837-.21-.2798,0-.5386.0693-.7769.2061-.2378.1377-.4292.3291-.5737.5742-.145.2451-.2173.5283-.2173.8506Z"/></g><g class="cls-3"><path class="cls-2" d="M75.6972,43.8838c.3027,0,.5508-.0508.7422-.1543.1904-.1025.3164-.1797.3779-.2305l.8252,1.2246c-.0654.0518-.1865.124-.3633.2168-.1777.0938-.4023.1768-.6758.249s-.585.1084-.9346.1084c-.6064,0-1.1504-.1221-1.6309-.3672s-.8604-.5957-1.1377-1.0498c-.2773-.4551-.416-.998-.416-1.6279,0-.6348.1387-1.1787.416-1.6309.2773-.4531.6572-.8008,1.1377-1.043.4805-.2432,1.0244-.3643,1.6309-.3643.3457,0,.6523.0371.9209.1123.2676.0742.4932.1592.6748.2549.1826.0957.3086.1738.3779.2344l-.8467,1.2324c-.0322-.0371-.0957-.0889-.1885-.1543-.0938-.0654-.2158-.126-.3682-.1816-.1514-.0557-.332-.084-.542-.084-.2568,0-.501.0674-.7314.2031-.2314.1357-.4189.3242-.5635.5664-.1445.2432-.2178.5283-.2178.8545s.0732.6123.2178.8574.332.4355.5635.5703c.2305.1357.4746.2031.7314.2031Z"/></g><g class="cls-3"><path class="cls-2" d="M77.2959,39.3828h1.0361v-2.3594h1.7637v2.3594h1.3584v1.4775h-1.3584v2.0781c0,.2754.0449.4893.1328.6406.0889.1523.2285.2275.4199.2275.1445,0,.2637-.0293.3574-.0869.0938-.0586.1494-.0996.168-.123l.6299,1.2744c-.0283.0273-.1182.0771-.2695.1465-.1514.0703-.3457.1348-.5811.1924-.2354.0586-.5.0879-.7939.0879-.5273,0-.9639-.1533-1.3096-.458-.3447-.3057-.5176-.7812-.5176-1.4248v-2.5547h-1.0361v-1.4775Z"/><path class="cls-2" d="M91.8418,35.8896h1.75v5.6982c0,.7607-.1504,1.4189-.4512,1.9736-.3008.5557-.7236.9834-1.2676,1.2852-.543.3008-1.1836.4512-1.9209.4512-.7422,0-1.3877-.1504-1.9355-.4512-.5488-.3018-.9736-.7295-1.2744-1.2852-.3008-.5547-.4512-1.2129-.4512-1.9736v-5.6982h1.7432v5.6074c0,.4668.0801.8643.2412,1.1934s.3857.5791.6758.749c.2891.1699.623.2559,1.001.2559.373,0,.7021-.0859.9863-.2559.2852-.1699.5068-.4199.665-.749.1592-.3291.2383-.7266.2383-1.1934v-5.6074Z"/><path class="cls-2" d="M96.875,39.2148c.3447,0,.665.0312.959.0947.2939.0625.542.1338.7451.2129.2031.0801.3369.1475.4023.2031l-.6084,1.0713c-.0938-.0742-.2607-.1631-.501-.2656s-.5078-.1543-.8018-.1543c-.2656,0-.4893.0459-.6719.1367-.1816.0908-.2725.2275-.2725.4092s.0977.3271.2939.4336c.1953.1074.4688.2012.8184.2803.2939.0605.584.1533.8682.2764.2852.124.5205.3018.707.5322.1865.2314.2803.5381.2803.9209,0,.3779-.0811.6914-.2412.9414-.1611.249-.375.4463-.6406.5908-.2666.1455-.5576.248-.875.3086s-.6328.0908-.9453.0908c-.4062,0-.7627-.0381-1.0713-.1152-.3076-.0771-.5605-.166-.7588-.2666-.1992-.0996-.3398-.1855-.4238-.2549l.6094-1.1904c.1211.1074.3203.2256.5977.3535.2783.1289.5781.1924.9004.1924.3359,0,.6006-.0576.7939-.1748.1934-.1162.291-.2725.291-.4688,0-.1445-.0469-.2627-.1406-.3535-.0928-.0908-.2217-.167-.3848-.2275s-.3545-.1143-.5742-.1611c-.2002-.042-.4062-.1035-.6162-.1855-.21-.0811-.4053-.1904-.5879-.3252-.1816-.1357-.3291-.3047-.4404-.5078-.1123-.2031-.168-.4463-.168-.7314,0-.3643.1162-.6689.3496-.9131.2334-.2451.5371-.4316.9102-.5605.373-.1279.7725-.1924,1.1973-.1924Z"/></g></g></svg>