<?xml version="1.0" encoding="UTF-8"?><svg id="Layer_2" xmlns="http://www.w3.org/2000/svg" width="136" height="48" viewBox="0 0 136 48"><defs><style>.cls-1{fill:none;}.cls-2{fill:#231f20;}.cls-3{isolation:isolate;}.cls-4{fill:#151515;}</style></defs><rect class="cls-1" width="136" height="48"/><g class="cls-3"><g class="cls-3"><path class="cls-2" d="M46.9447,35.6797h5.7329v1.5469h-3.9971v2.3105h3.9409v1.498h-3.9409v2.3379h3.9971v1.5469h-5.7329v-9.2402Z"/><path class="cls-2" d="M54.5253,39.1729h1.9038l1.5752,4.123,1.5752-4.123h1.897l-2.4292,5.7471h-2.0859l-2.436-5.7471Z"/><path class="cls-2" d="M64.4652,42.4424c.0142.2607.084.4941.21.6992.1265.2061.3096.3672.5498.4834s.5308.1748.8716.1748c.2983,0,.5635-.0371.7944-.1123.231-.0742.4268-.165.5879-.2725s.2788-.2148.3535-.3223l.7417,1.085c-.1357.168-.3105.3213-.5249.459s-.4888.2471-.8223.3291c-.3335.0811-.75.1221-1.2495.1221-.6299,0-1.1831-.124-1.6592-.3711-.4756-.2471-.8481-.6045-1.1162-1.0713-.2686-.4658-.4028-1.0215-.4028-1.666,0-.5596.1201-1.0645.3608-1.5146.2402-.4512.5879-.8066,1.043-1.0684.4551-.2607,1.002-.3916,1.6416-.3916.6021,0,1.1235.1152,1.5645.3467.4409.2305.7822.5684,1.0254,1.0117.2422.4434.3633.9844.3633,1.624,0,.0371-.001.1143-.0029.2305-.0029.1172-.0088.1914-.0176.2246h-4.312ZM67.1322,41.3428c-.0044-.1494-.0498-.3105-.1362-.4824-.0864-.1729-.2217-.3203-.4062-.4414-.1841-.1211-.4258-.1816-.7241-.1816-.3037,0-.5522.0596-.7456.1777-.1938.1191-.3384.2627-.4341.4307s-.1528.334-.1714.4971h2.6177Z"/><path class="cls-2" d="M74.3632,39.0049c.3916,0,.7744.0801,1.1475.2412.374.1611.6807.417.9209.7666.2402.3506.3604.8076.3604,1.3721v3.5352h-1.7852v-3.2266c0-.4717-.1104-.8213-.332-1.0508-.2217-.2285-.5127-.3428-.8721-.3428-.2334,0-.4561.0645-.668.1924-.2129.1289-.3848.3057-.5186.5322-.1328.2266-.1992.4844-.1992.7734v3.1221h-1.7783v-5.7471h1.7783v.917c.0518-.1582.168-.3223.3496-.4902.1826-.168.4131-.3086.6934-.4229s.5811-.1719.9033-.1719Z"/><path class="cls-2" d="M78.3808,39.1729h1.0361v-2.3594h1.7637v2.3594h1.3584v1.4775h-1.3584v2.0781c0,.2754.0449.4893.1328.6406.0889.1523.2285.2275.4199.2275.1445,0,.2637-.0293.3574-.0869.0938-.0586.1494-.0996.168-.123l.6299,1.2744c-.0283.0273-.1182.0771-.2695.1465-.1514.0703-.3457.1348-.5811.1924-.2354.0586-.5.0879-.7939.0879-.5273,0-.9639-.1533-1.3096-.458-.3447-.3057-.5176-.7812-.5176-1.4248v-2.5547h-1.0361v-1.4775Z"/><path class="cls-2" d="M86.9003,39.0049c.3447,0,.665.0312.959.0947.2939.0625.542.1338.7451.2129.2031.0801.3369.1475.4023.2031l-.6084,1.0713c-.0938-.0742-.2607-.1631-.501-.2656s-.5078-.1543-.8018-.1543c-.2656,0-.4893.0459-.6719.1367-.1816.0908-.2725.2275-.2725.4092s.0977.3271.2939.4336c.1953.1074.4688.2012.8184.2803.2939.0605.584.1533.8682.2764.2852.124.5205.3018.707.5322.1865.2314.2803.5381.2803.9209,0,.3779-.0811.6914-.2412.9414-.1611.249-.375.4463-.6406.5908-.2666.1455-.5576.248-.875.3086s-.6328.0908-.9453.0908c-.4062,0-.7627-.0381-1.0713-.1152-.3076-.0771-.5605-.166-.7588-.2666-.1992-.0996-.3398-.1855-.4238-.2549l.6094-1.1904c.1211.1074.3203.2256.5977.3535.2783.1289.5781.1924.9004.1924.3359,0,.6006-.0576.7939-.1748.1934-.1162.291-.2725.291-.4688,0-.1445-.0469-.2627-.1406-.3535-.0928-.0908-.2217-.167-.3848-.2275s-.3545-.1143-.5742-.1611c-.2002-.042-.4062-.1035-.6162-.1855-.21-.0811-.4053-.1904-.5879-.3252-.1816-.1357-.3291-.3047-.4404-.5078-.1123-.2031-.168-.4463-.168-.7314,0-.3643.1162-.6689.3496-.9131.2334-.2451.5371-.4316.9102-.5605.373-.1279.7725-.1924,1.1973-.1924Z"/></g></g><g id="Icon_Set_Wireframe"><path id="Vector" class="cls-4" d="M81.4796,4.6583c-.06-.22-.17-.42-.33-.58-.16-.16-.36-.27-.58-.33-2.61-.68-5.35-.6-7.92.21s-4.85,2.34-6.59,4.39l-1.42,1.68-3.31-.8c-.8-.28-1.68-.26-2.48.06-.79.32-1.44.91-1.83,1.67l-2.8,4.96c-.1.17-.15.37-.16.57,0,.2.03.4.11.58s.21.34.36.47c.16.13.34.21.53.25l3.91.84c-.33,1.01-.57,2.04-.71,3.09-.03.19,0,.39.06.57s.17.35.3.49l3.94,3.94c.12.12.26.21.41.28.15.06.32.1.49.1h.11c1.07-.1,2.14-.31,3.17-.62l.82,3.82c.04.19.13.38.25.53.13.16.29.28.47.36s.38.12.58.11c.2,0,.39-.06.57-.16l4.96-2.8c.7-.42,1.24-1.06,1.56-1.81.31-.75.38-1.59.19-2.38l-.85-3.51,1.57-1.45c2.06-1.74,3.59-4.02,4.41-6.59.82-2.57.89-5.32.2-7.93l.01-.01ZM57.2996,15.6683l1.98-3.51c.12-.24.33-.42.58-.51s.53-.08.77.03l2.18.53-.83.98c-.78.94-1.46,1.96-2.02,3.05l-2.67-.57h.01ZM73.1496,26.1183l-3.45,1.95-.55-2.55c1.11-.55,2.14-1.24,3.07-2.06l.94-.87.51,2.12c.07.26.05.54-.04.79-.09.25-.26.47-.48.62ZM75.1996,17.2583l-4.68,4.3c-1.85,1.6-4.14,2.62-6.57,2.93l-3.06-3.06c.41-2.44,1.46-4.72,3.05-6.62l2.13-2.53s.07-.08.1-.12l1.82-2.17c1.35-1.59,3.1-2.8,5.06-3.5,1.97-.7,4.08-.86,6.13-.47.4,2.06.24,4.18-.46,6.16-.7,1.97-1.92,3.72-3.53,5.07l.01.01ZM74.0196,9.4283c-.38,0-.75.11-1.06.32s-.56.51-.7.86-.18.73-.11,1.1c.07.37.26.71.52.98.27.27.61.45.98.52.37.07.75.04,1.1-.11.35-.14.65-.39.86-.7.21-.31.32-.68.32-1.06,0-.25-.05-.5-.15-.73s-.24-.44-.41-.62c-.18-.18-.39-.32-.62-.41-.23-.1-.48-.15-.73-.15h0Z"/></g></svg>