<svg width="87" height="78" viewBox="0 0 87 78" fill="none" xmlns="http://www.w3.org/2000/svg">
<g filter="url(#filter0_d_2024_2136)">
<rect width="83" height="74" rx="8" fill="#B9B9B9" shape-rendering="crispEdges"/>
<rect x="1" y="1" width="81" height="72" rx="7" stroke="#131313" stroke-width="2" shape-rendering="crispEdges"/>
<path d="M34.52 28.96C34.1244 28.96 33.7378 29.0773 33.4089 29.2971C33.08 29.5168 32.8236 29.8292 32.6722 30.1946C32.5209 30.5601 32.4813 30.9622 32.5584 31.3502C32.6356 31.7382 32.8261 32.0945 33.1058 32.3742C33.3855 32.6539 33.7419 32.8444 34.1298 32.9216C34.5178 32.9988 34.9199 32.9591 35.2854 32.8078C35.6508 32.6564 35.9632 32.4001 36.1829 32.0712C36.4027 31.7423 36.52 31.3556 36.52 30.96C36.52 30.4296 36.3093 29.9209 35.9342 29.5458C35.5591 29.1707 35.0504 28.96 34.52 28.96ZM34.52 20C34.1244 20 33.7378 20.1173 33.4089 20.3371C33.08 20.5568 32.8236 20.8692 32.6722 21.2346C32.5209 21.6001 32.4813 22.0022 32.5584 22.3902C32.6356 22.7782 32.8261 23.1345 33.1058 23.4142C33.3855 23.6939 33.7419 23.8844 34.1298 23.9616C34.5178 24.0388 34.9199 23.9991 35.2854 23.8478C35.6508 23.6964 35.9632 23.4401 36.1829 23.1112C36.4027 22.7823 36.52 22.3956 36.52 22C36.52 21.4696 36.3093 20.9609 35.9342 20.5858C35.5591 20.2107 35.0504 20 34.52 20ZM41.5 24C40.9696 24 40.4609 24.2107 40.0858 24.5858C39.7107 24.9609 39.5 25.4696 39.5 26V28C39.5 28.5304 39.7107 29.0392 40.0858 29.4142C40.4609 29.7893 40.9696 30 41.5 30C42.0304 30 42.5391 29.7893 42.9142 29.4142C43.2893 29.0392 43.5 28.5304 43.5 28V26C43.5 25.4696 43.2893 24.9609 42.9142 24.5858C42.5391 24.2107 42.0304 24 41.5 24ZM58.5 21.14C57.8101 20.743 57.048 20.4873 56.2583 20.3877C55.4685 20.2882 54.6669 20.3467 53.9 20.56C53.1018 20.7738 52.3586 21.1557 51.72 21.68L28.52 8.26001C28.216 8.08448 27.8711 7.99207 27.52 7.99207C27.1689 7.99207 26.824 8.08448 26.52 8.26001C26.2111 8.43367 25.9538 8.68629 25.7746 8.99202C25.5954 9.29776 25.5006 9.64562 25.5 10V36.34C24.3197 36.7381 23.2963 37.5008 22.5774 38.518C21.8585 39.5353 21.4813 40.7545 21.5 42C21.4994 43.564 22.1096 45.0663 23.2004 46.1871C24.2913 47.3078 25.7766 47.9583 27.34 48H28.5C35.0535 47.9846 41.4862 46.2354 47.145 42.93C52.8039 39.6246 57.4874 34.8808 60.72 29.18C61.4666 27.816 61.6545 26.2154 61.2441 24.7156C60.8337 23.2158 59.857 21.9339 58.52 21.14H58.5ZM29.5 13.46L49.28 24.88C47.0856 28.1544 44.152 30.867 40.716 32.7986C37.28 34.7303 33.4379 35.8269 29.5 36V13.46ZM57.24 27.22C54.2709 32.4514 49.9348 36.7766 44.6959 39.7324C39.4571 42.6883 33.513 44.1635 27.5 44C26.9696 44 26.4609 43.7893 26.0858 43.4142C25.7107 43.0392 25.5 42.5304 25.5 42C25.4984 41.732 25.5507 41.4665 25.6538 41.2191C25.7569 40.9717 25.9086 40.7476 26.1 40.56C26.4757 40.1978 26.9781 39.9969 27.5 40H28.52C33.6554 39.9979 38.6982 38.6322 43.1328 36.0424C47.5674 33.4526 51.2348 29.7317 53.76 25.26C53.8814 25.0406 54.0473 24.849 54.247 24.6975C54.4468 24.546 54.676 24.4378 54.92 24.38C55.4243 24.2416 55.9628 24.3062 56.42 24.56C56.8789 24.8067 57.2234 25.2226 57.3803 25.7194C57.5372 26.2162 57.494 26.7546 57.26 27.22H57.24Z" fill="#131313"/>
<path d="M28.104 56.76H33.242V58.307H29.854V60.596H32.997V62.136H29.854V66H28.104V56.76ZM37.1173 66.168C36.506 66.168 35.96 66.0373 35.4793 65.776C35.0033 65.5147 34.63 65.1577 34.3593 64.705C34.0887 64.2477 33.9533 63.7273 33.9533 63.144C33.9533 62.5607 34.0887 62.0403 34.3593 61.583C34.63 61.121 35.0033 60.757 35.4793 60.491C35.96 60.2203 36.506 60.085 37.1173 60.085C37.7333 60.085 38.277 60.2203 38.7483 60.491C39.2197 60.757 39.5883 61.121 39.8543 61.583C40.1203 62.0403 40.2533 62.5607 40.2533 63.144C40.2533 63.7273 40.1203 64.2477 39.8543 64.705C39.5883 65.1577 39.2197 65.5147 38.7483 65.776C38.277 66.0373 37.7333 66.168 37.1173 66.168ZM37.1173 64.691C37.4113 64.691 37.6657 64.6257 37.8803 64.495C38.0997 64.3597 38.2677 64.1753 38.3843 63.942C38.5057 63.704 38.5663 63.4357 38.5663 63.137C38.5663 62.8383 38.5057 62.57 38.3843 62.332C38.2677 62.094 38.0997 61.9073 37.8803 61.772C37.6657 61.632 37.4113 61.562 37.1173 61.562C36.8233 61.562 36.5667 61.632 36.3473 61.772C36.1327 61.9073 35.9647 62.094 35.8433 62.332C35.722 62.57 35.6613 62.8383 35.6613 63.137C35.6613 63.4357 35.722 63.704 35.8433 63.942C35.9647 64.1753 36.1327 64.3597 36.3473 64.495C36.5667 64.6257 36.8233 64.691 37.1173 64.691ZM44.2677 66.168C43.6564 66.168 43.1104 66.0373 42.6297 65.776C42.1537 65.5147 41.7804 65.1577 41.5097 64.705C41.2391 64.2477 41.1037 63.7273 41.1037 63.144C41.1037 62.5607 41.2391 62.0403 41.5097 61.583C41.7804 61.121 42.1537 60.757 42.6297 60.491C43.1104 60.2203 43.6564 60.085 44.2677 60.085C44.8837 60.085 45.4274 60.2203 45.8987 60.491C46.3701 60.757 46.7387 61.121 47.0047 61.583C47.2707 62.0403 47.4037 62.5607 47.4037 63.144C47.4037 63.7273 47.2707 64.2477 47.0047 64.705C46.7387 65.1577 46.3701 65.5147 45.8987 65.776C45.4274 66.0373 44.8837 66.168 44.2677 66.168ZM44.2677 64.691C44.5617 64.691 44.8161 64.6257 45.0307 64.495C45.2501 64.3597 45.4181 64.1753 45.5347 63.942C45.6561 63.704 45.7167 63.4357 45.7167 63.137C45.7167 62.8383 45.6561 62.57 45.5347 62.332C45.4181 62.094 45.2501 61.9073 45.0307 61.772C44.8161 61.632 44.5617 61.562 44.2677 61.562C43.9737 61.562 43.7171 61.632 43.4977 61.772C43.2831 61.9073 43.1151 62.094 42.9937 62.332C42.8724 62.57 42.8117 62.8383 42.8117 63.137C42.8117 63.4357 42.8724 63.704 42.9937 63.942C43.1151 64.1753 43.2831 64.3597 43.4977 64.495C43.7171 64.6257 43.9737 64.691 44.2677 64.691ZM51.0891 66.168C50.5431 66.168 50.0625 66.0373 49.6471 65.776C49.2365 65.51 48.9145 65.1483 48.6811 64.691C48.4525 64.229 48.3381 63.7087 48.3381 63.13C48.3381 62.5513 48.4525 62.0333 48.6811 61.576C48.9145 61.114 49.2365 60.75 49.6471 60.484C50.0625 60.218 50.5431 60.085 51.0891 60.085C51.4765 60.085 51.8195 60.148 52.1181 60.274C52.4215 60.4 52.6641 60.5493 52.8461 60.722C53.0281 60.8947 53.1355 61.0487 53.1681 61.184V56.368H54.9531V66H53.1891V64.999C53.1145 65.1623 52.9768 65.335 52.7761 65.517C52.5755 65.699 52.3305 65.853 52.0411 65.979C51.7518 66.105 51.4345 66.168 51.0891 66.168ZM51.5931 64.754C51.8918 64.754 52.1601 64.6863 52.3981 64.551C52.6361 64.411 52.8228 64.2197 52.9581 63.977C53.0981 63.7297 53.1681 63.4473 53.1681 63.13C53.1681 62.8127 53.0981 62.5327 52.9581 62.29C52.8228 62.0427 52.6361 61.849 52.3981 61.709C52.1601 61.569 51.8918 61.499 51.5931 61.499C51.3178 61.499 51.0658 61.569 50.8371 61.709C50.6085 61.8443 50.4241 62.0357 50.2841 62.283C50.1488 62.5257 50.0811 62.808 50.0811 63.13C50.0811 63.452 50.1488 63.7367 50.2841 63.984C50.4241 64.2267 50.6085 64.4157 50.8371 64.551C51.0658 64.6863 51.3178 64.754 51.5931 64.754Z" fill="#131313"/>
</g>
<defs>
<filter id="filter0_d_2024_2136" x="0" y="0" width="87" height="78" filterUnits="userSpaceOnUse" color-interpolation-filters="sRGB">
<feFlood flood-opacity="0" result="BackgroundImageFix"/>
<feColorMatrix in="SourceAlpha" type="matrix" values="0 0 0 0 0 0 0 0 0 0 0 0 0 0 0 0 0 0 127 0" result="hardAlpha"/>
<feOffset dx="4" dy="4"/>
<feComposite in2="hardAlpha" operator="out"/>
<feColorMatrix type="matrix" values="0 0 0 0 0 0 0 0 0 0 0 0 0 0 0 0 0 0 1 0"/>
<feBlend mode="normal" in2="BackgroundImageFix" result="effect1_dropShadow_2024_2136"/>
<feBlend mode="normal" in="SourceGraphic" in2="effect1_dropShadow_2024_2136" result="shape"/>
</filter>
</defs>
</svg>
