<svg width="87" height="78" viewBox="0 0 87 78" fill="none" xmlns="http://www.w3.org/2000/svg">
<g filter="url(#filter0_d_2024_2134)">
<rect width="83" height="74" rx="8" fill="#B9B9B9" shape-rendering="crispEdges"/>
<rect x="1" y="1" width="81" height="72" rx="7" stroke="#131313" stroke-width="2" shape-rendering="crispEdges"/>
<g clip-path="url(#clip0_2024_2134)">
<path d="M25.24 38.56C25.4363 39.0533 25.8204 39.4484 26.308 39.6585C26.7956 39.8685 27.3467 39.8763 27.84 39.68C28.3333 39.4837 28.7284 39.0996 28.9385 38.612C29.1485 38.1244 29.1563 37.5733 28.96 37.08L26.72 31.44L40 28.5V38C40 38.5304 40.2107 39.0391 40.5858 39.4142C40.9609 39.7893 41.4696 40 42 40C42.5304 40 43.0391 39.7893 43.4142 39.4142C43.7893 39.0391 44 38.5304 44 38V28.5L57.28 31.44L55.04 37.08C54.9426 37.3242 54.8943 37.5853 54.8978 37.8482C54.9014 38.1111 54.9568 38.3708 55.0608 38.6123C55.1649 38.8537 55.3155 39.0724 55.5041 39.2556C55.6927 39.4388 55.9156 39.583 56.16 39.68C56.3956 39.7731 56.6467 39.8206 56.9 39.82C57.3006 39.8204 57.692 39.7005 58.0236 39.4758C58.3553 39.2512 58.6118 38.9321 58.76 38.56L61.86 30.74C61.9664 30.4695 62.0126 30.1791 61.9953 29.889C61.978 29.5988 61.8977 29.3159 61.76 29.06C61.6264 28.805 61.4392 28.5818 61.2114 28.4058C60.9836 28.2298 60.7205 28.105 60.44 28.04L54 26.62V18C54 17.4696 53.7893 16.9609 53.4142 16.5858C53.0391 16.2107 52.5304 16 52 16H48V10C48 9.46957 47.7893 8.96086 47.4142 8.58579C47.0391 8.21071 46.5304 8 46 8H38C37.4696 8 36.9609 8.21071 36.5858 8.58579C36.2107 8.96086 36 9.46957 36 10V16H32C31.4696 16 30.9609 16.2107 30.5858 16.5858C30.2107 16.9609 30 17.4696 30 18V26.62L23.56 28C23.2795 28.065 23.0164 28.1898 22.7886 28.3658C22.5608 28.5418 22.3736 28.765 22.24 29.02C22.1023 29.2759 22.022 29.5588 22.0047 29.849C21.9874 30.1391 22.0336 30.4295 22.14 30.7L25.24 38.56ZM40 12H44V16H40V12ZM34 20H50V25.72L42.44 24H42.24H42H41.76H41.56L34 25.72V20ZM59.42 42.56C58.7183 42.775 58.0463 43.0774 57.42 43.46C56.7829 43.8326 56.0581 44.029 55.32 44.029C54.5819 44.029 53.8571 43.8326 53.22 43.46C51.8345 42.6784 50.2707 42.2677 48.68 42.2677C47.0893 42.2677 45.5255 42.6784 44.14 43.46C43.4941 43.8283 42.7635 44.0219 42.02 44.0219C41.2765 44.0219 40.5459 43.8283 39.9 43.46C38.5133 42.6821 36.95 42.2736 35.36 42.2736C33.77 42.2736 32.2067 42.6821 30.82 43.46C30.1829 43.8326 29.4581 44.029 28.72 44.029C27.9819 44.029 27.2571 43.8326 26.62 43.46C25.9937 43.0774 25.3217 42.775 24.62 42.56C24.3539 42.4654 24.0707 42.4282 23.7892 42.4509C23.5077 42.4736 23.2342 42.5557 22.9867 42.6917C22.7392 42.8278 22.5233 43.0147 22.3532 43.2402C22.1831 43.4657 22.0628 43.7246 22 44C21.8507 44.5065 21.9078 45.0516 22.1588 45.5162C22.4099 45.9808 22.8345 46.3273 23.34 46.48C23.7427 46.5891 24.1269 46.7576 24.48 46.98C25.6934 47.692 27.0731 48.0714 28.48 48.08C29.9412 48.0803 31.3765 47.6939 32.64 46.96C33.424 46.5275 34.3047 46.3007 35.2 46.3007C36.0953 46.3007 36.9761 46.5275 37.76 46.96C39.0146 47.6774 40.4348 48.0548 41.88 48.0548C43.3252 48.0548 44.7454 47.6774 46 46.96C46.784 46.5275 47.6647 46.3007 48.56 46.3007C49.4553 46.3007 50.3361 46.5275 51.12 46.96C52.3596 47.6999 53.7764 48.0905 55.22 48.0905C56.6636 48.0905 58.0804 47.6999 59.32 46.96C59.6731 46.7376 60.0573 46.5691 60.46 46.46C60.7262 46.4062 60.9786 46.2987 61.2018 46.1441C61.4251 45.9895 61.6146 45.7911 61.7587 45.5609C61.9027 45.3308 61.9985 45.0737 62.0399 44.8053C62.0814 44.5369 62.0678 44.2629 62 44C61.9364 43.7293 61.8171 43.4749 61.6497 43.2529C61.4823 43.0309 61.2705 42.8463 61.0277 42.7108C60.7849 42.5753 60.5166 42.4919 60.2397 42.4659C59.9629 42.44 59.6837 42.472 59.42 42.56Z" fill="#131313"/>
</g>
<path d="M24.4344 56.76H26.1844V66H24.4344V56.76ZM30.3471 60.085C30.6924 60.085 31.0121 60.1177 31.3061 60.183C31.6001 60.2437 31.8474 60.3137 32.0481 60.393C32.2534 60.4723 32.3888 60.54 32.4541 60.596L31.8451 61.667C31.7518 61.5923 31.5838 61.5037 31.3411 61.401C31.1031 61.2983 30.8371 61.247 30.5431 61.247C30.2771 61.247 30.0531 61.2937 29.8711 61.387C29.6891 61.4757 29.5981 61.611 29.5981 61.793C29.5981 61.975 29.6961 62.1197 29.8921 62.227C30.0881 62.3343 30.3611 62.4277 30.7111 62.507C31.0051 62.5677 31.2944 62.661 31.5791 62.787C31.8638 62.9083 32.0994 63.0857 32.2861 63.319C32.4728 63.5477 32.5661 63.8533 32.5661 64.236C32.5661 64.614 32.4844 64.929 32.3211 65.181C32.1624 65.4283 31.9501 65.6243 31.6841 65.769C31.4181 65.9137 31.1264 66.0163 30.8091 66.077C30.4918 66.1377 30.1768 66.168 29.8641 66.168C29.4581 66.168 29.1011 66.1283 28.7931 66.049C28.4851 65.9743 28.2308 65.888 28.0301 65.79C27.8341 65.6873 27.6941 65.601 27.6101 65.531L28.2191 64.341C28.3404 64.4483 28.5388 64.5673 28.8141 64.698C29.0941 64.824 29.3951 64.887 29.7171 64.887C30.0531 64.887 30.3168 64.8287 30.5081 64.712C30.7041 64.5953 30.8021 64.439 30.8021 64.243C30.8021 64.0983 30.7554 63.9817 30.6621 63.893C30.5688 63.7997 30.4404 63.7227 30.2771 63.662C30.1138 63.6013 29.9224 63.5477 29.7031 63.501C29.5024 63.459 29.2971 63.3983 29.0871 63.319C28.8771 63.235 28.6811 63.1253 28.4991 62.99C28.3171 62.8547 28.1701 62.6867 28.0581 62.486C27.9461 62.2807 27.8901 62.0357 27.8901 61.751C27.8901 61.387 28.0068 61.0837 28.2401 60.841C28.4734 60.5937 28.7768 60.407 29.1501 60.281C29.5234 60.1503 29.9224 60.085 30.3471 60.085ZM35.61 66H33.825V56.368H35.61V66ZM41.6416 66V64.999C41.5996 65.1017 41.4923 65.2463 41.3196 65.433C41.1469 65.6197 40.9136 65.79 40.6196 65.944C40.3303 66.0933 39.9896 66.168 39.5976 66.168C39.0469 66.168 38.5593 66.0373 38.1346 65.776C37.7099 65.51 37.3763 65.1483 37.1336 64.691C36.8956 64.229 36.7766 63.7087 36.7766 63.13C36.7766 62.5513 36.8956 62.0333 37.1336 61.576C37.3763 61.114 37.7099 60.75 38.1346 60.484C38.5593 60.218 39.0469 60.085 39.5976 60.085C39.9803 60.085 40.3116 60.1503 40.5916 60.281C40.8763 60.407 41.1049 60.5563 41.2776 60.729C41.4549 60.897 41.5693 61.0487 41.6206 61.184V60.253H43.3846V66H41.6416ZM38.5196 63.13C38.5196 63.452 38.5919 63.7367 38.7366 63.984C38.8813 64.2267 39.0726 64.4157 39.3106 64.551C39.5486 64.6863 39.8076 64.754 40.0876 64.754C40.3816 64.754 40.6429 64.6863 40.8716 64.551C41.1003 64.411 41.2799 64.2197 41.4106 63.977C41.5459 63.7297 41.6136 63.4473 41.6136 63.13C41.6136 62.8127 41.5459 62.5327 41.4106 62.29C41.2799 62.0427 41.1003 61.849 40.8716 61.709C40.6429 61.569 40.3816 61.499 40.0876 61.499C39.8076 61.499 39.5486 61.569 39.3106 61.709C39.0726 61.8443 38.8813 62.0357 38.7366 62.283C38.5919 62.5257 38.5196 62.808 38.5196 63.13ZM48.5122 60.085C48.9042 60.085 49.2869 60.1667 49.6602 60.33C50.0335 60.4887 50.3392 60.743 50.5772 61.093C50.8199 61.443 50.9412 61.9003 50.9412 62.465V66H49.1562V62.773C49.1562 62.3017 49.0442 61.9517 48.8202 61.723C48.6009 61.4943 48.3115 61.38 47.9522 61.38C47.7189 61.38 47.4949 61.4453 47.2802 61.576C47.0702 61.702 46.8975 61.8793 46.7622 62.108C46.6315 62.332 46.5662 62.5887 46.5662 62.878V66H44.7882V60.253H46.5662V61.17C46.6175 61.0113 46.7342 60.848 46.9162 60.68C47.0982 60.512 47.3292 60.372 47.6092 60.26C47.8892 60.1433 48.1902 60.085 48.5122 60.085ZM54.8147 66.168C54.2687 66.168 53.788 66.0373 53.3727 65.776C52.962 65.51 52.64 65.1483 52.4067 64.691C52.178 64.229 52.0637 63.7087 52.0637 63.13C52.0637 62.5513 52.178 62.0333 52.4067 61.576C52.64 61.114 52.962 60.75 53.3727 60.484C53.788 60.218 54.2687 60.085 54.8147 60.085C55.202 60.085 55.545 60.148 55.8437 60.274C56.147 60.4 56.3897 60.5493 56.5717 60.722C56.7537 60.8947 56.861 61.0487 56.8937 61.184V56.368H58.6787V66H56.9147V64.999C56.84 65.1623 56.7024 65.335 56.5017 65.517C56.301 65.699 56.056 65.853 55.7667 65.979C55.4774 66.105 55.16 66.168 54.8147 66.168ZM55.3187 64.754C55.6174 64.754 55.8857 64.6863 56.1237 64.551C56.3617 64.411 56.5484 64.2197 56.6837 63.977C56.8237 63.7297 56.8937 63.4473 56.8937 63.13C56.8937 62.8127 56.8237 62.5327 56.6837 62.29C56.5484 62.0427 56.3617 61.849 56.1237 61.709C55.8857 61.569 55.6174 61.499 55.3187 61.499C55.0434 61.499 54.7914 61.569 54.5627 61.709C54.334 61.8443 54.1497 62.0357 54.0097 62.283C53.8744 62.5257 53.8067 62.808 53.8067 63.13C53.8067 63.452 53.8744 63.7367 54.0097 63.984C54.1497 64.2267 54.334 64.4157 54.5627 64.551C54.7914 64.6863 55.0434 64.754 55.3187 64.754Z" fill="#131313"/>
</g>
<defs>
<filter id="filter0_d_2024_2134" x="0" y="0" width="87" height="78" filterUnits="userSpaceOnUse" color-interpolation-filters="sRGB">
<feFlood flood-opacity="0" result="BackgroundImageFix"/>
<feColorMatrix in="SourceAlpha" type="matrix" values="0 0 0 0 0 0 0 0 0 0 0 0 0 0 0 0 0 0 127 0" result="hardAlpha"/>
<feOffset dx="4" dy="4"/>
<feComposite in2="hardAlpha" operator="out"/>
<feColorMatrix type="matrix" values="0 0 0 0 0 0 0 0 0 0 0 0 0 0 0 0 0 0 1 0"/>
<feBlend mode="normal" in2="BackgroundImageFix" result="effect1_dropShadow_2024_2134"/>
<feBlend mode="normal" in="SourceGraphic" in2="effect1_dropShadow_2024_2134" result="shape"/>
</filter>
<clipPath id="clip0_2024_2134">
<rect width="48" height="48" fill="white" transform="translate(17.5 4)"/>
</clipPath>
</defs>
</svg>
