<svg width="87" height="78" viewBox="0 0 87 78" fill="none" xmlns="http://www.w3.org/2000/svg">
<g filter="url(#filter0_d_2024_2132)">
<rect width="83" height="74" rx="8" fill="#B9B9B9" shape-rendering="crispEdges"/>
<rect x="1" y="1" width="81" height="72" rx="7" stroke="#131313" stroke-width="2" shape-rendering="crispEdges"/>
<g clip-path="url(#clip0_2024_2132)">
<path d="M53 8C51.4177 8 49.871 8.46919 48.5554 9.34824C47.2398 10.2273 46.2145 11.4767 45.609 12.9385C45.0035 14.4003 44.845 16.0089 45.1537 17.5607C45.4624 19.1126 46.2243 20.538 47.3431 21.6569C48.462 22.7757 49.8874 23.5376 51.4393 23.8463C52.9911 24.155 54.5997 23.9965 56.0615 23.391C57.5233 22.7855 58.7727 21.7602 59.6518 20.4446C60.5308 19.129 61 17.5823 61 16C61 13.8783 60.1571 11.8434 58.6569 10.3431C57.1566 8.84285 55.1217 8 53 8ZM53 20C52.2089 20 51.4355 19.7654 50.7777 19.3259C50.1199 18.8864 49.6072 18.2616 49.3045 17.5307C49.0017 16.7998 48.9225 15.9956 49.0769 15.2196C49.2312 14.4437 49.6122 13.731 50.1716 13.1716C50.731 12.6122 51.4437 12.2312 52.2196 12.0769C52.9956 11.9225 53.7998 12.0017 54.5307 12.3045C55.2616 12.6072 55.8864 13.1199 56.3259 13.7777C56.7654 14.4355 57 15.2089 57 16C57 17.0609 56.5786 18.0783 55.8284 18.8284C55.0783 19.5786 54.0609 20 53 20ZM47 44H43V40C43 39.4696 42.7893 38.9609 42.4142 38.5858C42.0391 38.2107 41.5304 38 41 38C40.4696 38 39.9609 38.2107 39.5858 38.5858C39.2107 38.9609 39 39.4696 39 40V44H35V37.24L41.9 33.78C42.2298 33.6138 42.5072 33.3595 42.7014 33.0453C42.8955 32.7311 42.9989 32.3693 43 32V24C43 23.4696 42.7893 22.9609 42.4142 22.5858C42.0391 22.2107 41.5304 22 41 22C40.4696 22 39.9609 22.2107 39.5858 22.5858C39.2107 22.9609 39 23.4696 39 24V30.76L35 32.76V20C35 19.4696 34.7893 18.9609 34.4142 18.5858C34.0391 18.2107 33.5304 18 33 18C32.4696 18 31.9609 18.2107 31.5858 18.5858C31.2107 18.9609 31 19.4696 31 20V36.76L27 34.76V30C27 29.4696 26.7893 28.9609 26.4142 28.5858C26.0391 28.2107 25.5304 28 25 28C24.4696 28 23.9609 28.2107 23.5858 28.5858C23.2107 28.9609 23 29.4696 23 30V36C23.0011 36.3693 23.1045 36.7311 23.2986 37.0453C23.4928 37.3595 23.7702 37.6138 24.1 37.78L31 41.24V44H23C22.4696 44 21.9609 44.2107 21.5858 44.5858C21.2107 44.9609 21 45.4696 21 46C21 46.5304 21.2107 47.0391 21.5858 47.4142C21.9609 47.7893 22.4696 48 23 48H47C47.5304 48 48.0391 47.7893 48.4142 47.4142C48.7893 47.0391 49 46.5304 49 46C49 45.4696 48.7893 44.9609 48.4142 44.5858C48.0391 44.2107 47.5304 44 47 44Z" fill="#131313"/>
</g>
<path d="M22.782 58.377L22.901 58.398V66H21.158V56.76H23.566L27.71 64.348L27.591 64.376V56.76H29.334V66H26.912L22.782 58.377ZM35.5371 66V64.999C35.4951 65.1017 35.3878 65.2463 35.2151 65.433C35.0424 65.6197 34.8091 65.79 34.5151 65.944C34.2258 66.0933 33.8851 66.168 33.4931 66.168C32.9424 66.168 32.4548 66.0373 32.0301 65.776C31.6054 65.51 31.2718 65.1483 31.0291 64.691C30.7911 64.229 30.6721 63.7087 30.6721 63.13C30.6721 62.5513 30.7911 62.0333 31.0291 61.576C31.2718 61.114 31.6054 60.75 32.0301 60.484C32.4548 60.218 32.9424 60.085 33.4931 60.085C33.8758 60.085 34.2071 60.1503 34.4871 60.281C34.7718 60.407 35.0004 60.5563 35.1731 60.729C35.3504 60.897 35.4648 61.0487 35.5161 61.184V60.253H37.2801V66H35.5371ZM32.4151 63.13C32.4151 63.452 32.4874 63.7367 32.6321 63.984C32.7768 64.2267 32.9681 64.4157 33.2061 64.551C33.4441 64.6863 33.7031 64.754 33.9831 64.754C34.2771 64.754 34.5384 64.6863 34.7671 64.551C34.9958 64.411 35.1754 64.2197 35.3061 63.977C35.4414 63.7297 35.5091 63.4473 35.5091 63.13C35.5091 62.8127 35.4414 62.5327 35.3061 62.29C35.1754 62.0427 34.9958 61.849 34.7671 61.709C34.5384 61.569 34.2771 61.499 33.9831 61.499C33.7031 61.499 33.4441 61.569 33.2061 61.709C32.9681 61.8443 32.7768 62.0357 32.6321 62.283C32.4874 62.5257 32.4151 62.808 32.4151 63.13ZM38.2497 60.253H39.2857V57.894H41.0497V60.253H42.4077V61.73H41.0497V63.809C41.0497 64.0843 41.094 64.299 41.1827 64.453C41.2714 64.6023 41.4114 64.677 41.6027 64.677C41.7474 64.677 41.8664 64.649 41.9597 64.593C42.053 64.5323 42.109 64.4903 42.1277 64.467L42.7577 65.741C42.7297 65.769 42.6387 65.818 42.4847 65.888C42.3354 65.958 42.1417 66.021 41.9037 66.077C41.6704 66.1377 41.4067 66.168 41.1127 66.168C40.5854 66.168 40.149 66.0163 39.8037 65.713C39.4584 65.405 39.2857 64.929 39.2857 64.285V61.73H38.2497V60.253ZM45.3279 63.004C45.3279 63.5173 45.4306 63.928 45.6359 64.236C45.8412 64.5393 46.1726 64.691 46.6299 64.691C47.0919 64.691 47.4256 64.5393 47.6309 64.236C47.8362 63.928 47.9389 63.5173 47.9389 63.004V60.253H49.6889V63.207C49.6889 63.7997 49.5699 64.32 49.3319 64.768C49.0939 65.2113 48.7462 65.5567 48.2889 65.804C47.8362 66.0467 47.2832 66.168 46.6299 66.168C45.9812 66.168 45.4282 66.0467 44.9709 65.804C44.5182 65.5567 44.1729 65.2113 43.9349 64.768C43.6969 64.32 43.5779 63.7997 43.5779 63.207V60.253H45.3279V63.004ZM52.7854 66H51.0074V60.253H52.7854V61.184H52.7504C52.7831 61.072 52.8718 60.9297 53.0164 60.757C53.1658 60.5843 53.3711 60.4303 53.6324 60.295C53.8938 60.155 54.2088 60.085 54.5774 60.085C54.8434 60.085 55.0838 60.1247 55.2984 60.204C55.5178 60.2787 55.6741 60.3533 55.7674 60.428L55.0674 61.884C55.0068 61.8093 54.8924 61.7323 54.7244 61.653C54.5611 61.5737 54.3558 61.534 54.1084 61.534C53.8144 61.534 53.5694 61.6157 53.3734 61.779C53.1774 61.9377 53.0304 62.1337 52.9324 62.367C52.8344 62.5957 52.7854 62.8103 52.7854 63.011V66ZM57.6174 63.522C57.6314 63.7833 57.7014 64.0167 57.8274 64.222C57.9534 64.4273 58.1354 64.5883 58.3734 64.705C58.6161 64.8217 58.9054 64.88 59.2414 64.88C59.5447 64.88 59.8107 64.8427 60.0394 64.768C60.2727 64.6933 60.4687 64.6023 60.6274 64.495C60.7907 64.383 60.9121 64.2757 60.9914 64.173L61.7264 65.265C61.5957 65.4283 61.4207 65.58 61.2014 65.72C60.9867 65.8553 60.7114 65.9627 60.3754 66.042C60.0441 66.126 59.6287 66.168 59.1294 66.168C58.4994 66.168 57.9464 66.0443 57.4704 65.797C56.9944 65.5497 56.6234 65.1927 56.3574 64.726C56.0914 64.2593 55.9584 63.704 55.9584 63.06C55.9584 62.5 56.0774 61.996 56.3154 61.548C56.5534 61.0953 56.8987 60.7383 57.3514 60.477C57.8087 60.2157 58.3571 60.085 58.9964 60.085C59.5984 60.085 60.1187 60.2017 60.5574 60.435C61.0007 60.6637 61.3437 60.9997 61.5864 61.443C61.8291 61.8863 61.9504 62.4277 61.9504 63.067C61.9504 63.1043 61.9481 63.1813 61.9434 63.298C61.9434 63.41 61.9387 63.4847 61.9294 63.522H57.6174ZM60.2844 62.423C60.2797 62.2737 60.2331 62.1127 60.1444 61.94C60.0604 61.7673 59.9274 61.6203 59.7454 61.499C59.5634 61.3777 59.3207 61.317 59.0174 61.317C58.7141 61.317 58.4644 61.3753 58.2684 61.492C58.0771 61.6087 57.9324 61.7533 57.8344 61.926C57.7364 62.094 57.6804 62.2597 57.6664 62.423H60.2844Z" fill="#131313"/>
</g>
<defs>
<filter id="filter0_d_2024_2132" x="0" y="0" width="87" height="78" filterUnits="userSpaceOnUse" color-interpolation-filters="sRGB">
<feFlood flood-opacity="0" result="BackgroundImageFix"/>
<feColorMatrix in="SourceAlpha" type="matrix" values="0 0 0 0 0 0 0 0 0 0 0 0 0 0 0 0 0 0 127 0" result="hardAlpha"/>
<feOffset dx="4" dy="4"/>
<feComposite in2="hardAlpha" operator="out"/>
<feColorMatrix type="matrix" values="0 0 0 0 0 0 0 0 0 0 0 0 0 0 0 0 0 0 1 0"/>
<feBlend mode="normal" in2="BackgroundImageFix" result="effect1_dropShadow_2024_2132"/>
<feBlend mode="normal" in="SourceGraphic" in2="effect1_dropShadow_2024_2132" result="shape"/>
</filter>
<clipPath id="clip0_2024_2132">
<rect width="48" height="48" fill="white" transform="translate(17.5 4)"/>
</clipPath>
</defs>
</svg>
