<svg width="87" height="78" viewBox="0 0 87 78" fill="none" xmlns="http://www.w3.org/2000/svg">
<g filter="url(#filter0_d_2024_2130)">
<rect width="83" height="74" rx="8" fill="#B9B9B9" shape-rendering="crispEdges"/>
<rect x="1" y="1" width="81" height="72" rx="7" stroke="#131313" stroke-width="2" shape-rendering="crispEdges"/>
<path d="M62.7021 8.124C62.6119 7.78144 62.4324 7.46897 62.1819 7.21848C61.9314 6.96799 61.6189 6.78846 61.2764 6.69822C57.1736 5.6326 52.8533 5.74737 48.8129 7.02933C44.7726 8.31128 41.1764 10.7083 38.4385 13.9443L36.2086 16.592L30.999 15.335C29.7325 14.8935 28.349 14.9251 27.104 15.4241C25.859 15.9231 24.8366 16.8558 24.2256 18.0498L19.8252 25.8496C19.671 26.1228 19.5833 26.4285 19.5691 26.7418C19.5548 27.0552 19.6145 27.3676 19.7434 27.6536C19.8722 27.9396 20.0665 28.1914 20.3106 28.3884C20.5547 28.5855 20.8417 28.7224 21.1484 28.788L27.2939 30.1054C26.7734 31.6901 26.4016 33.3199 26.1836 34.9736C26.1441 35.2774 26.1749 35.5862 26.2736 35.8762C26.3723 36.1663 26.5363 36.4298 26.7529 36.6464L32.9531 42.8466C33.1388 43.0324 33.3592 43.1798 33.6018 43.2803C33.8444 43.3809 34.1045 43.4326 34.3671 43.4326C34.4247 43.4326 34.4824 43.4297 34.541 43.4248C36.2316 43.2728 37.9018 42.9443 39.5241 42.4448L40.8115 48.4511C40.8772 48.7578 41.0142 49.0447 41.2113 49.2887C41.4084 49.5327 41.6601 49.727 41.9461 49.8558C42.2321 49.9845 42.5444 50.0443 42.8577 50.0301C43.1711 50.016 43.4767 49.9284 43.7499 49.7744L51.5605 45.3691C52.6598 44.7012 53.5185 43.7013 54.0127 42.5137C54.507 41.3262 54.6113 40.0123 54.3105 38.7617L52.9731 33.2437L55.4472 30.9687C58.6954 28.2384 61.1016 24.6421 62.3859 20.5979C63.6702 16.5537 63.7799 12.228 62.7021 8.124ZM24.6445 25.4463L27.7568 19.9268C27.9502 19.552 28.2795 19.2655 28.6773 19.1259C29.0752 18.9862 29.5114 19.0041 29.8965 19.1758L33.3313 20.0082L32.0313 21.5518C30.7988 23.0289 29.7328 24.6374 28.8527 26.348L24.6445 25.4463ZM49.585 41.8906L44.1533 44.954L43.2943 40.9447C45.0356 40.0763 46.6578 38.9875 48.1211 37.705L49.6082 36.3377L50.415 39.6669C50.5197 40.078 50.4963 40.5112 50.3479 40.9086C50.1996 41.306 49.9334 41.6487 49.585 41.8906ZM52.8135 27.96L45.4443 34.7325C42.5275 37.255 38.9296 38.8584 35.1035 39.3409L30.2949 34.5323C30.9408 30.6962 32.5984 27.102 35.0967 24.1203L38.4534 20.1349C38.5093 20.0764 38.5615 20.0144 38.6096 19.9494L41.4795 16.542C43.6014 14.0358 46.3505 12.1376 49.4459 11.0413C52.5414 9.94496 55.8723 9.68977 59.0986 10.3018C59.7254 13.5382 59.473 16.8835 58.3675 19.9892C57.2621 23.0949 55.3442 25.8474 52.8135 27.96ZM50.9675 15.6325C50.3741 15.6325 49.7941 15.8084 49.3008 16.1381C48.8074 16.4677 48.4229 16.9363 48.1958 17.4844C47.9688 18.0326 47.9094 18.6358 48.0251 19.2178C48.1409 19.7997 48.4266 20.3342 48.8462 20.7538C49.2657 21.1734 49.8003 21.4591 50.3822 21.5748C50.9642 21.6906 51.5674 21.6312 52.1155 21.4041C52.6637 21.1771 53.1322 20.7925 53.4619 20.2992C53.7915 19.8058 53.9675 19.2258 53.9675 18.6325C53.9675 18.2385 53.8899 17.8484 53.7392 17.4844C53.5884 17.1204 53.3674 16.7896 53.0888 16.5111C52.8102 16.2325 52.4795 16.0115 52.1155 15.8607C51.7515 15.71 51.3614 15.6324 50.9674 15.6324L50.9675 15.6325Z" fill="#131313"/>
<path d="M32.2134 66H30.2184L26.8934 56.76H28.8604L31.2194 63.802L33.5784 56.76H35.5454L32.2134 66ZM36.7322 66V60.253H38.5032V66H36.7322ZM37.6422 58.769C37.3482 58.769 37.0986 58.6663 36.8932 58.461C36.6926 58.2557 36.5922 58.0107 36.5922 57.726C36.5922 57.4413 36.6949 57.194 36.9002 56.984C37.1056 56.774 37.3529 56.669 37.6422 56.669C37.8336 56.669 38.0086 56.718 38.1672 56.816C38.3259 56.9093 38.4542 57.0353 38.5522 57.194C38.6502 57.3527 38.6992 57.53 38.6992 57.726C38.6992 58.0107 38.5942 58.2557 38.3842 58.461C38.1789 58.6663 37.9316 58.769 37.6422 58.769ZM41.4436 63.522C41.4576 63.7833 41.5276 64.0167 41.6536 64.222C41.7796 64.4273 41.9616 64.5883 42.1996 64.705C42.4422 64.8217 42.7316 64.88 43.0676 64.88C43.3709 64.88 43.6369 64.8427 43.8656 64.768C44.0989 64.6933 44.2949 64.6023 44.4536 64.495C44.6169 64.383 44.7382 64.2757 44.8176 64.173L45.5526 65.265C45.4219 65.4283 45.2469 65.58 45.0276 65.72C44.8129 65.8553 44.5376 65.9627 44.2016 66.042C43.8702 66.126 43.4549 66.168 42.9556 66.168C42.3256 66.168 41.7726 66.0443 41.2966 65.797C40.8206 65.5497 40.4496 65.1927 40.1836 64.726C39.9176 64.2593 39.7846 63.704 39.7846 63.06C39.7846 62.5 39.9036 61.996 40.1416 61.548C40.3796 61.0953 40.7249 60.7383 41.1776 60.477C41.6349 60.2157 42.1832 60.085 42.8226 60.085C43.4246 60.085 43.9449 60.2017 44.3836 60.435C44.8269 60.6637 45.1699 60.9997 45.4126 61.443C45.6552 61.8863 45.7766 62.4277 45.7766 63.067C45.7766 63.1043 45.7742 63.1813 45.7696 63.298C45.7696 63.41 45.7649 63.4847 45.7556 63.522H41.4436ZM44.1106 62.423C44.1059 62.2737 44.0592 62.1127 43.9706 61.94C43.8866 61.7673 43.7536 61.6203 43.5716 61.499C43.3896 61.3777 43.1469 61.317 42.8436 61.317C42.5402 61.317 42.2906 61.3753 42.0946 61.492C41.9032 61.6087 41.7586 61.7533 41.6606 61.926C41.5626 62.094 41.5066 62.2597 41.4926 62.423H44.1106ZM51.1492 62.297L49.7632 66H48.0762L46.3052 60.253H48.1952L49.1612 64.089L50.5262 60.365H51.7792L53.1302 64.089L54.1032 60.253H55.9932L54.2292 66H52.5422L51.1492 62.297Z" fill="#131313"/>
</g>
<defs>
<filter id="filter0_d_2024_2130" x="0" y="0" width="87" height="78" filterUnits="userSpaceOnUse" color-interpolation-filters="sRGB">
<feFlood flood-opacity="0" result="BackgroundImageFix"/>
<feColorMatrix in="SourceAlpha" type="matrix" values="0 0 0 0 0 0 0 0 0 0 0 0 0 0 0 0 0 0 127 0" result="hardAlpha"/>
<feOffset dx="4" dy="4"/>
<feComposite in2="hardAlpha" operator="out"/>
<feColorMatrix type="matrix" values="0 0 0 0 0 0 0 0 0 0 0 0 0 0 0 0 0 0 1 0"/>
<feBlend mode="normal" in2="BackgroundImageFix" result="effect1_dropShadow_2024_2130"/>
<feBlend mode="normal" in="SourceGraphic" in2="effect1_dropShadow_2024_2130" result="shape"/>
</filter>
</defs>
</svg>
