<svg width="46" height="48" viewBox="0 0 46 48" fill="none" xmlns="http://www.w3.org/2000/svg">
<path d="M33.5417 13H33.5609M13.4167 4H32.5834C37.8761 4 42.1667 8.47715 42.1667 14V34C42.1667 39.5228 37.8761 44 32.5834 44H13.4167C8.12398 44 3.83337 39.5228 3.83337 34V14C3.83337 8.47715 8.12398 4 13.4167 4ZM30.6667 22.74C30.9032 24.4045 30.6308 26.1044 29.8881 27.598C29.1454 29.0916 27.9702 30.3028 26.5298 31.0593C25.0894 31.8159 23.4571 32.0792 21.865 31.8119C20.2729 31.5445 18.8021 30.7602 17.6618 29.5703C16.5215 28.3805 15.7699 26.8457 15.5137 25.1844C15.2575 23.5231 15.5098 21.8198 16.2348 20.3167C16.9598 18.8137 18.1206 17.5875 19.5519 16.8125C20.9833 16.0375 22.6124 15.7532 24.2075 16C25.8346 16.2518 27.341 17.0429 28.5041 18.2566C29.6672 19.4703 30.4254 21.0422 30.6667 22.74Z" stroke="#7F9537" stroke-width="4" stroke-linecap="round" stroke-linejoin="round"/>
</svg>
