<?xml version="1.0" encoding="UTF-8"?>
<svg id="Layer_2" data-name="Layer 2" xmlns="http://www.w3.org/2000/svg" viewBox="0 0 171.63 68.15">
  <defs>
    <style>
      .cls-1, .cls-2, .cls-3, .cls-4, .cls-5, .cls-6, .cls-7, .cls-8, .cls-9, .cls-10 {
        stroke: #231f20;
        stroke-miterlimit: 10;
      }

      .cls-1, .cls-2, .cls-4, .cls-6, .cls-7, .cls-8, .cls-9 {
        fill: none;
      }

      .cls-2 {
        stroke-dasharray: 1.84 1.84;
      }

      .cls-2, .cls-4, .cls-6, .cls-8 {
        stroke-width: .5px;
      }

      .cls-3 {
        fill: #354ca0;
      }

      .cls-3, .cls-5, .cls-7 {
        stroke-width: 2px;
      }

      .cls-11 {
        fill: #231f20;
      }

      .cls-4 {
        stroke-dasharray: 1.94 1.94;
      }

      .cls-5, .cls-12 {
        fill: #ea7364;
      }

      .cls-13, .cls-10 {
        fill: #c46a49;
      }

      .cls-8 {
        stroke-dasharray: 2.07 2.07;
      }

      .cls-9 {
        stroke-width: 3px;
      }
    </style>
  </defs>
  <g id="logo_design_2" data-name="logo design 2">
    <path class="cls-3" d="M74.28,25.84c0,.91-.29,1.85-.94,2.5-1.12,1.19-2.9,1.3-5,1.38-1.56-.11-2.97-.04-4.16-.65-1.01-.51-1.96-1.67-1.96-3.19,0-1.63.94-2.79,1.99-3.37,1.2-.69,2.43-.69,4.13-.69,2.97.14,5.94.87,5.94,4.02Z"/>
    <path class="cls-3" d="M94.17,18.45c0,2.21-1.12,4.31-2.9,4.31-.25,0-.51-.07-.8-.14-.14-.04-.29-.07-.4-.07-.51,0-.72.43-.72,1.09,0,.11.04.22.04.33.14,1.81.33,3.66.33,5.54,0,1.3-.07,2.57-.33,3.91-.51,2.68-2.06,5.76-5,5.76-.29,0-.62-.04-.94-.11-2.46-.51-3.91-2.79-4.45-5.25-.18-.76-.22-1.52-.22-2.17,0-2.82,1.19-4.89,1.19-7.86v-.65c-.07-1.05-.58-1.3-1.19-1.3-.43,0-.94.11-1.41.11-.18,0-.36,0-.51-.04-1.3-.33-2.06-1.56-2.06-3.15v-.43c.18-2.28,1.23-3.8,3.29-4.56,1.74-.62,4.49-.98,7.17-.98,2.9,0,5.68.43,6.95,1.38,1.34,1.01,1.96,2.68,1.96,4.31Z"/>
    <path class="cls-3" d="M106.15,12.91c3.33,0,6.66,1.19,9.16,3.37,2.64,2.32,4.34,5.72,4.49,9.23v.51c0,3.48-1.48,6.95-3.98,9.38-2.57,2.5-6.12,3.87-9.7,3.87h-.29c-3.29-.07-6.55-1.3-9.01-3.51-2.46-2.21-4.06-5.36-4.31-8.65-.04-.33-.04-.62-.04-.94,0-3.29,1.3-6.52,3.55-8.91,2.46-2.61,6.01-4.2,9.59-4.34h.54ZM105.82,21.38c-.43,0-.87.14-1.27.47-.4.33-.62.83-.62,1.3,0,.43.18.87.51,1.19.36.36.9.62,1.48.62.4,0,.8-.11,1.16-.36.43-.33.76-.83.76-1.41,0-1.01-.98-1.81-2.03-1.81Z"/>
    <path class="cls-3" d="M138.22,16.5c.25-1.59,1.09-2.79,2.43-3.33.58-.25,1.16-.33,1.74-.33,1.63,0,3.04.87,3.8,2.06.72,1.12.87,2.53.94,4.2.04,1.09.11,2.35.11,3.62,0,5.83-.76,12.78-3.95,14.99-1.12.76-2.39,1.12-3.58,1.12-1.92,0-3.69-.9-4.67-2.46-1.74-2.82-1.81-4.24-1.88-4.24s-.22,1.3-1.92,4.02c-.51.83-1.3,1.52-2.17,1.95-.87.43-1.77.65-2.68.65-1.19,0-2.35-.36-3.37-1.05-3.19-2.21-3.95-9.16-3.95-14.99,0-1.27.04-2.53.07-3.62.07-1.67.22-3.08.94-4.2.76-1.19,2.21-2.06,3.84-2.06.58,0,1.16.07,1.74.33,1.34.54,2.17,1.74,2.43,3.33.07.51.65,5.79,1.27,5.79.47,0,.07-5.25,3.58-5.25,4.63,0,3.51,5.43,3.98,5.43.62,0,1.23-5.47,1.3-5.97Z"/>
    <path class="cls-3" d="M156.54,32.35c0,1.27-.04,2.53-.25,3.66-.4,1.92-1.63,3.26-3.91,3.26-2.72,0-4.31-1.67-4.74-4.02-.33-1.88-.36-4.05-.36-6.19v-3.19c0-5.58.25-12.45,5.61-12.45,1.63,0,2.61.4,3.62,1.27,2.46,2.1,2.21,6.55,4.38,8.73.04.04.07.07.11.07.25,0,.36-1.05.36-1.45v-.36c0-1.16.04-2.28.04-3.48,0-1.88.29-3.26,1.41-4.27.72-.65,1.7-.98,2.64-.98,1.38,0,2.97.69,3.8,1.7,1.09,1.34,1.38,2.9,1.38,5v.36c0,1.85.04,3.77-.04,5.58-.07,2.28-.18,4.45-.47,6.66-.51,3.55-1.48,7.17-5.61,7.17-3.37,0-4.6-1.27-5.68-4.67-.36-1.09-.98-3.51-1.74-4.31-.07-.07-.14-.14-.22-.14-.22,0-.36.4-.36.9l.04.91v.25Z"/>
    <path class="cls-11" d="M82.36,53.79c-1.2-.01-2.21-.29-3.03-.82-.82-.54-1.22-1.21-1.21-2.02,0-1.02.71-2.04,2.1-3.05.24-.17.42-.26.54-.26s1.33-.02,1.33.06c0,.18-1.29.38-1.57.49-.04.01-.08.03-.11.06-1.1.84-1.65,1.7-1.66,2.58,0,.64.29,1.17.89,1.61s1.35.66,2.25.67c1.96.02,3.82-.87,5.58-2.67.91-.94,1.37-2.02,1.38-3.26s-.46-2.15-1.42-2.76c-.8-.55-1.88-.83-3.24-.84-1.96-.02-3.94.44-5.93,1.36-2.45,1.11-4.68,2.86-6.68,5.24-2,2.38-3,4.68-3.02,6.9-.02,1.75.59,3.11,1.82,4.08,1.23.97,2.77,1.46,4.61,1.47,2.1.02,4.17-.45,6.2-1.42,1.55-.76,2.89-1.73,4.02-2.91.32-.34.58-.52.76-.51.12,0,1.38-.08,1.38.12s-1.32.59-1.54.8c-1.07,1.07-2.61,2.1-4.63,3.08-2.48,1.23-4.96,1.83-7.45,1.81s-4.34-.83-5.55-2.42c-.81-1.05-1.21-2.3-1.2-3.74,0-.64.09-1.32.26-2.05.56-2.46,2.01-4.85,4.33-7.16,1.68-1.66,3.66-2.95,5.96-3.86,2.29-.91,4.46-1.36,6.5-1.34,1.08.01,2.02.14,2.82.4,2.18.68,3.26,2.01,3.24,3.99-.01,1.21-.39,2.26-1.14,3.14-1.86,2.16-4.07,3.23-6.61,3.21Z"/>
    <path class="cls-11" d="M96.33,56.26c0,.68-.68,1.81-2.06,3.39-1.62,1.88-3.01,2.82-4.17,2.82h-.5c-.54,0-.96-.25-1.27-.77-.25-.37-.37-.77-.38-1.21,0-1.16.89-2.78,2.69-4.88,1.8-2.1,3.25-3.15,4.37-3.15.05,0,1.49.03,1.53.03.96.04.05.53.05,1.52,0,.27-.05.62-.15,1.04.02.06.22.09.59.08s.94-.19,1.7-.56c0,0,1.29.02,1.29.03-.07.33-2.17.79-3.73,1.4.02.08.03.16.03.26ZM94.46,54.98c-.1-.14-.28-.22-.46-.17-.67.18-1.57.94-2.68,2.28-1.28,1.55-1.92,2.69-1.92,3.42s.25,1.1.75,1.1c.89,0,2.01-.76,3.37-2.27,1.18-1.32,1.85-2.31,2-2.98.03-.15-.03-.29-.15-.39-.26-.19-.56-.52-.91-.99Z"/>
    <path class="cls-11" d="M103.66,53.22c.52,0,1.87-.07,1.87.33,0,.12-1.12.5-1.18.62-.97,1.37-1.73,2.55-2.26,3.53-.22.41.3.8.63.48,3.6-3.53,5.82-5.3,6.67-5.3.1-.02,1.41-.06,1.51,0,.47.26-.44.21-.44.69,0,.1-.02.19-.06.29-.04.1-.42.62-1.15,1.57-.84,1.01-1.56,1.97-2.14,2.9-.58.93-.87,1.7-.87,2.32s.14.92.41.92c.85,0,2.31-1.17,4.4-3.52.04-.04.1-.13.2-.26.29-.35.46-.52.52-.52s1.22-.06,1.22.13-1.27.6-1.54.91c-2.38,2.73-4.06,4.09-5.06,4.1-.94,0-1.42-.52-1.42-1.56s.38-2.24,1.14-3.59l.6-.99c.24-.39-.27-.82-.61-.51-.58.53-1.13,1.09-1.64,1.67-1.02,1.15-1.94,2.27-2.77,3.35-.83,1.08-.12,1.61-.25,1.65-.87.26-1.72-.15-1.88-.39-.16-.24-.25-.54-.25-.9s.12-.83.37-1.43c0-.02.02-.05.03-.07.17-.41-.35-.76-.66-.43l-.15.16c.33.36.54.62.44.66-.66.25-1.39-.08-1.39-.21s.08-.27.23-.42c.71-.72,1.32-1.4,1.84-2.06.5-.66,1.52-1.91,3.07-3.77.17-.23.35-.35.55-.35Z"/>
    <path class="cls-11" d="M112.77,62.71c-.23,0-.44-.03-.63-.08-1.35-.34-2.03-1.04-2.03-2.08,0-1.35.91-2.91,2.76-4.69,1.85-1.78,3.51-2.67,4.98-2.67.48,0,.88.12,1.19.36.31.24.46.57.46.98s.67,1.29.4,1.74c-.27.45-1.48.24-2.03.24s-.82-.15-.82-.46c0-.21.14-.54.42-.97.28-.43.42-.67.42-.7s-.03-.04-.09-.04c-.59.06-1.39.45-2.41,1.16-1.02.72-1.72,1.32-2.09,1.8l-1.23,1.65c-.21.31-.36.68-.45,1.1-.09.42-.14.74-.14.95s.13.45.4.72c.26.27.64.4,1.12.4,1.05,0,2.36-.57,3.91-1.7,1.55-1.13,2.75-2.21,3.59-3.23.1-.12.23-.17.38-.17s.67-.05.67.03-.5.26-.6.37c-1.15,1.41-2.53,2.64-4.14,3.7-1.61,1.06-2.95,1.58-4.02,1.59Z"/>
    <path class="cls-11" d="M120.78,62.62c-1.09,0-1.64-.63-1.64-1.9,0-1.04.62-2.48,1.88-4.33,1.25-1.85,2.27-2.78,3.04-2.8.21,0,1.39-.07,1.66.08.27.15-.53.46-.53.61-.11.14-.23.29-.38.45-.15.16-.31.34-.48.54-.17.19-.4.47-.7.83-.3.36-.59.7-.86,1.03-1.6,1.88-2.39,3.17-2.39,3.87s.27,1.05.81,1.05c.45,0,1.06-.23,1.83-.67,1.79-1.01,3.21-2.11,4.25-3.31.38-.44.64-.67.78-.67s.62-.05.62.1-.66.59-1.15,1.06c-.49.46-.88.83-1.17,1.1-.29.27-.48.45-.59.54-.11.09-.3.25-.59.49-.29.24-.51.41-.66.51-.15.1-.36.24-.64.44-.28.19-.52.33-.74.42-.21.09-.46.19-.74.31-.45.18-.98.26-1.6.27ZM128.45,50.61c.29.18-.56.54-.56.79s.88.67.61.85c-.27.18-1.57.08-1.89.08s-.62-.1-.88-.31c-.27-.21-.4-.45-.4-.72,0-.54.4-.81,1.22-.81.32,0,1.62-.05,1.91.13Z"/>
    <path class="cls-11" d="M142.38,62.36c-1.65,0-2.47-.79-2.48-2.39,0-.81.23-1.7.71-2.66.48-.97,1-1.78,1.57-2.43-.11.02-.25.03-.43.03-.38,0-.72-.17-1.01-.51-.18-.21-.54-.2-.72,0l-2.02,2.32c-1.36,1.49-2.14,2.23-2.36,2.24-.11,0-.16-.04-.16-.12,0-.19.18-.47.56-.84,1.88-1.94,3.22-3.58,4.01-4.92.02-.03.03-.05.04-.08.5-1.65,1.12-2.48,1.89-2.48.5,0,.76.19.76.58s-.27.88-.82,1.48l-.67.79c-.09.1-.12.24-.07.36.11.26.44.39.98.38.39,0,.83-.13,1.32-.38l.85-.47s.15-.03.33-.03.36.1.56.29c.2.19.26.37.2.52l-2.26,2.52c-1.4,1.59-2.1,2.84-2.09,3.75s.49,1.37,1.45,1.37,2.25-.48,3.71-1.43c.87-.56,1.67-1.19,2.4-1.89.68-.7,1.05-1.04,1.12-1.05.15,0,1.26-.05,1.26.09s-1.13.44-1.33.63l-1.05,1.05c-.59.54-1.25,1.07-1.97,1.57-1.73,1.14-3.15,1.72-4.27,1.72Z"/>
    <path class="cls-11" d="M158.14,53.34l.4-.09c.25,0,.45.08.59.23.14.15.22.27.22.36s0,.18-.03.29c-.02.11-.3.59-.83,1.46-.67,1.18-1.23,2.17-1.67,2.98-1.55,2.92-2.74,4.92-3.56,6-1.76,2.36-3.45,3.54-5.05,3.55-.56,0-1.05-.23-1.46-.7-.42-.47-.63-1-.66-1.57.06-.23.14-.35.26-.35.06,0,1.21-.08,1.25.06.1.5-.82,1.03-.55,1.3.27.27.54.4.81.4,1.1,0,2.27-.73,3.52-2.18.83-.97,1.74-2.38,2.73-4.23l.29-.58c.21-.41-.33-.79-.65-.46l-.37.38c-1.38,1.34-2.33,2-2.84,2.01s-1-.17-1.46-.52c-.52-.38-.78-.89-.79-1.53,0-1.41.98-3.09,2.95-5.04,1.97-1.95,3.76-2.93,5.38-2.94.66,0,1.08.21,1.27.63.06.15.11.28.15.39.04.11.07.16.09.16ZM149.52,60.48c0,.69.24,1.04.73,1.04,1.12,0,2.64-1.23,4.56-3.69l2.86-3.97c.15-.21.07-.51-.17-.61-.1-.04-.23-.06-.37-.06-1.2,0-2.76.93-4.7,2.78-1.94,1.85-2.91,3.35-2.9,4.51Z"/>
    <path class="cls-11" d="M161.85,62.52c-.21,0-.4-.03-.58-.08-1.23-.34-1.85-1.03-1.86-2.08,0-1.35.84-2.91,2.53-4.69,1.69-1.78,3.21-2.67,4.56-2.68.44,0,.81.12,1.09.36.28.24.42.53.42.88,0,1.08-.81,2.11-2.43,3.1-1.63.99-2.95,1.49-3.97,1.49-.15,0-.29-.02-.4-.06-.29.52-.43,1.07-.43,1.65,0,1,.48,1.5,1.44,1.5s2.19-.65,3.71-1.95c1.17-.95,2.17-1.96,3-3.02.17-.23.32-.35.45-.35s1.34-.05,1.34.07-1.23.39-1.38.6c-1.04,1.37-2.28,2.59-3.75,3.66-1.46,1.07-2.7,1.6-3.72,1.6ZM167.28,54.17c0-.23-.25-.35-.74-.34s-1.19.38-2.09,1.14c-1.21,1.01-2.15,2.06-2.82,3.16.12.04.24.06.38.06.73,0,1.71-.4,2.93-1.18,1.22-.79,1.98-1.64,2.29-2.57.04-.1.06-.18.06-.26Z"/>
    <path class="cls-11" d="M82.78,53.8c-1.2-.01-2.21-.29-3.03-.82-.82-.54-1.22-1.21-1.21-2.02,0-1.02.71-2.04,2.1-3.05.24-.17.42-.26.54-.26s.18.04.18.12c0,.18-.14.33-.43.44-.04.01-.08.03-.11.06-1.1.84-1.65,1.7-1.66,2.58,0,.64.29,1.17.89,1.61s1.35.66,2.25.67c1.96.02,3.82-.87,5.58-2.67.91-.94,1.37-2.02,1.38-3.26s-.46-2.15-1.42-2.76c-.8-.55-1.88-.83-3.24-.84-1.96-.02-3.94.44-5.93,1.36-2.45,1.11-4.68,2.86-6.68,5.24-2,2.38-3,4.68-3.02,6.9-.02,1.75.59,3.11,1.82,4.08,1.23.97,2.77,1.46,4.61,1.47,2.1.02,4.17-.45,6.2-1.42,1.55-.76,2.89-1.73,4.02-2.91.32-.34.58-.52.76-.51.12,0,.18.1.18.31s-.11.41-.34.62c-1.07,1.07-2.61,2.1-4.63,3.08-2.48,1.23-4.96,1.83-7.45,1.81s-4.34-.83-5.55-2.42c-.81-1.05-1.21-2.3-1.2-3.74,0-.64.09-1.32.26-2.05.56-2.46,2.01-4.85,4.33-7.16,1.68-1.66,3.66-2.95,5.96-3.86,2.29-.91,4.46-1.36,6.5-1.34,1.08.01,2.02.14,2.82.4,2.18.68,3.26,2.01,3.24,3.99-.01,1.21-.39,2.26-1.14,3.14-1.86,2.16-4.07,3.23-6.61,3.21Z"/>
    <path class="cls-11" d="M96.76,56.27c0,.68-.68,1.81-2.06,3.39-1.62,1.88-3.01,2.82-4.17,2.82h-.5c-.54,0-.96-.25-1.27-.77-.25-.37-.37-.77-.38-1.21,0-1.16.89-2.78,2.69-4.88,1.8-2.1,3.25-3.15,4.37-3.15,1.05,0,1.58.51,1.58,1.56,0,.27-.05.62-.15,1.04.02.06.22.09.59.08s.94-.19,1.7-.56c-.02.33-.83.8-2.44,1.43.02.08.03.16.03.26ZM94.89,54.98c-.1-.14-.28-.22-.46-.17-.67.18-1.57.94-2.68,2.28-1.28,1.55-1.92,2.69-1.92,3.42s.25,1.1.75,1.1c.89,0,2.01-.76,3.37-2.27,1.18-1.32,1.85-2.31,2-2.98.03-.15-.03-.29-.15-.39-.26-.19-.56-.52-.91-.99Z"/>
    <path class="cls-11" d="M104.06,53.23c.52,0,.78.2.78.6,0,.12-.03.23-.09.35-.97,1.37-1.73,2.55-2.26,3.53-.22.41.3.8.63.48,3.6-3.53,5.82-5.3,6.67-5.3.1-.02.18-.03.26-.03.54,0,.81.24.81.72,0,.1-.02.19-.06.29-.04.1-.42.62-1.15,1.57-.84,1.01-1.56,1.97-2.14,2.9-.58.93-.87,1.7-.87,2.32s.14.92.41.92c.85,0,2.31-1.17,4.4-3.52.04-.04.1-.13.2-.26.29-.35.46-.52.52-.52s.09.1.09.29-.13.44-.4.75c-2.38,2.73-4.06,4.09-5.06,4.1-.94,0-1.42-.52-1.42-1.56s.38-2.24,1.14-3.59l.6-.99c.24-.39-.27-.82-.61-.51-.58.53-1.13,1.09-1.64,1.67-1.02,1.15-1.94,2.27-2.77,3.35-.83,1.08-1.32,1.62-1.45,1.62-.29,0-.52-.12-.68-.36-.16-.24-.25-.54-.25-.9s.12-.83.37-1.43c0-.02.02-.05.03-.07.17-.41-.35-.76-.66-.43l-.15.16c-.42.43-.69.64-.79.64s-.16-.06-.16-.19.08-.27.23-.42c.71-.72,1.32-1.4,1.84-2.06.5-.66,1.52-1.91,3.07-3.77.17-.23.35-.35.55-.35Z"/>
    <path class="cls-11" d="M113.21,62.72c-.23,0-.44-.03-.63-.08-1.35-.34-2.03-1.04-2.03-2.08,0-1.35.91-2.91,2.76-4.69,1.85-1.78,3.51-2.67,4.98-2.67.48,0,.88.12,1.19.36.31.24.46.57.46.98s-.13.85-.4,1.3c-.27.45-.68.68-1.23.68s-.82-.15-.82-.46c0-.21.14-.54.42-.97.28-.43.42-.67.42-.7s-.03-.04-.09-.04c-.59.06-1.39.45-2.41,1.16-1.02.72-1.72,1.32-2.09,1.8l-1.23,1.65c-.21.31-.36.68-.45,1.1-.09.42-.14.74-.14.95s.13.45.4.72c.26.27.64.4,1.12.4,1.05,0,2.36-.57,3.91-1.7,1.55-1.13,2.75-2.21,3.59-3.23.1-.12.23-.17.38-.17s.22.04.22.11-.05.17-.16.29c-1.15,1.41-2.53,2.64-4.14,3.7-1.61,1.06-2.95,1.58-4.02,1.59Z"/>
    <path class="cls-11" d="M121.23,62.62c-1.09,0-1.64-.63-1.64-1.9,0-1.04.62-2.48,1.88-4.33,1.25-1.85,2.27-2.78,3.04-2.8.21,0,.45.08.72.23.27.15.4.31.4.46-.11.14-.23.29-.38.45-.15.16-.31.34-.48.54-.17.19-.4.47-.7.83-.3.36-.59.7-.86,1.03-1.6,1.88-2.39,3.17-2.39,3.87s.27,1.05.81,1.05c.45,0,1.06-.23,1.83-.67,1.79-1.01,3.21-2.11,4.25-3.31.38-.44.64-.67.78-.67s.21.08.21.23-.24.46-.73.93c-.49.46-.88.83-1.17,1.1-.29.27-.48.45-.59.54-.11.09-.3.25-.59.49-.29.24-.51.41-.66.51-.15.1-.36.24-.64.44-.28.19-.52.33-.74.42-.21.09-.46.19-.74.31-.45.18-.98.26-1.6.27ZM127.9,50.76c.29.18.43.4.44.65s-.13.47-.4.65c-.27.18-.56.28-.88.28s-.62-.1-.88-.31c-.27-.21-.4-.45-.4-.72,0-.54.4-.81,1.22-.81.32,0,.63.09.92.27Z"/>
    <path class="cls-11" d="M142.83,62.37c-1.65,0-2.47-.79-2.48-2.39,0-.81.23-1.7.71-2.66.48-.97,1-1.78,1.57-2.43-.11.02-.25.03-.43.03-.38,0-.72-.17-1.01-.51-.18-.21-.54-.2-.72,0l-2.02,2.32c-1.36,1.49-2.14,2.23-2.36,2.24-.11,0-.16-.04-.16-.12,0-.19.18-.47.56-.84,1.88-1.94,3.22-3.58,4.01-4.92.02-.03.03-.05.04-.08.5-1.65,1.12-2.48,1.89-2.48.5,0,.76.19.76.58s-.27.88-.82,1.48l-.67.79c-.09.1-.12.24-.07.36.11.26.44.39.98.38.39,0,.83-.13,1.32-.38l.85-.47s.15-.03.33-.03.36.1.56.29c.2.19.26.37.2.52l-2.26,2.52c-1.4,1.59-2.1,2.84-2.09,3.75s.49,1.37,1.45,1.37,2.25-.48,3.71-1.43c.87-.56,1.67-1.19,2.4-1.89.68-.7,1.05-1.04,1.12-1.05.15,0,.23.07.23.22s-.1.31-.29.51l-1.05,1.05c-.59.54-1.25,1.07-1.97,1.57-1.73,1.14-3.15,1.72-4.27,1.72Z"/>
    <path class="cls-11" d="M158.54,53.35l.4-.09c.25,0,.45.08.59.23.14.15.22.27.22.36s0,.18-.03.29c-.02.11-.3.59-.83,1.46-.67,1.18-1.23,2.17-1.67,2.98-1.55,2.92-2.74,4.92-3.56,6-1.76,2.36-3.45,3.54-5.05,3.55-.56,0-1.05-.23-1.46-.7-.42-.47-.63-1-.66-1.57.06-.23.14-.35.26-.35.06,0,.11.07.15.2.1.5.28.89.55,1.15.27.27.54.4.81.4,1.1,0,2.27-.73,3.52-2.18.83-.97,1.74-2.38,2.73-4.23l.29-.58c.21-.41-.33-.79-.65-.46l-.37.38c-1.38,1.34-2.33,2-2.84,2.01s-1-.17-1.46-.52c-.52-.38-.78-.89-.79-1.53,0-1.41.98-3.09,2.95-5.04,1.97-1.95,3.76-2.93,5.38-2.94.66,0,1.08.21,1.27.63.06.15.11.28.15.39.04.11.07.16.09.16ZM149.92,60.49c0,.69.24,1.04.73,1.04,1.12,0,2.64-1.23,4.56-3.69l2.86-3.97c.15-.21.07-.51-.17-.61-.1-.04-.23-.06-.37-.06-1.2,0-2.76.93-4.7,2.78-1.94,1.85-2.91,3.35-2.9,4.51Z"/>
    <path class="cls-11" d="M162.25,62.53c-.21,0-.4-.03-.58-.08-1.23-.34-1.85-1.03-1.86-2.08,0-1.35.84-2.91,2.53-4.69,1.69-1.78,3.21-2.67,4.56-2.68.44,0,.81.12,1.09.36.28.24.42.53.42.88,0,1.08-.81,2.11-2.43,3.1-1.63.99-2.95,1.49-3.97,1.49-.15,0-.29-.02-.4-.06-.29.52-.43,1.07-.43,1.65,0,1,.48,1.5,1.44,1.5s2.19-.65,3.71-1.95c1.17-.95,2.17-1.96,3-3.02.17-.23.32-.35.45-.35s.19.06.19.17-.08.28-.23.49c-1.04,1.37-2.28,2.59-3.75,3.66-1.46,1.07-2.7,1.6-3.72,1.6ZM167.68,54.18c0-.23-.25-.35-.74-.34s-1.19.38-2.09,1.14c-1.21,1.01-2.15,2.06-2.82,3.16.12.04.24.06.38.06.73,0,1.71-.4,2.93-1.18,1.22-.79,1.98-1.64,2.29-2.57.04-.1.06-.18.06-.26Z"/>
    <path class="cls-11" d="M83.19,53.82c-1.2-.01-2.21-.29-3.03-.82-.82-.54-1.22-1.21-1.21-2.02,0-1.02.71-2.04,2.1-3.05.24-.17.42-.26.54-.26s.18.04.18.12c0,.18-.14.33-.43.44-.04.01-.08.03-.11.06-1.1.84-1.65,1.7-1.66,2.58,0,.64.29,1.17.89,1.61s1.35.66,2.25.67c1.96.02,3.82-.87,5.58-2.67.91-.94,1.37-2.02,1.38-3.26s-.46-2.15-1.42-2.76c-.8-.55-1.88-.83-3.24-.84-1.96-.02-3.94.44-5.93,1.36-2.45,1.11-4.68,2.86-6.68,5.24-2,2.38-3,4.68-3.02,6.9-.02,1.75.59,3.11,1.82,4.08,1.23.97,2.77,1.46,4.61,1.47,2.1.02,4.17-.45,6.2-1.42,1.55-.76,2.89-1.73,4.02-2.91.32-.34.58-.52.76-.51.12,0,.18.1.18.31s-.11.41-.34.62c-1.07,1.07-2.61,2.1-4.63,3.08-2.48,1.23-4.96,1.83-7.45,1.81s-4.34-.83-5.55-2.42c-.81-1.05-1.21-2.3-1.2-3.74,0-.64.09-1.32.26-2.05.56-2.46,2.01-4.85,4.33-7.16,1.68-1.66,3.66-2.95,5.96-3.86,2.29-.91,4.46-1.36,6.5-1.34,1.08.01,2.02.14,2.82.4,2.18.68,3.26,2.01,3.24,3.99-.01,1.21-.39,2.26-1.14,3.14-1.86,2.16-4.07,3.23-6.61,3.21Z"/>
    <path class="cls-11" d="M97.19,56.28c0,.68-.68,1.81-2.06,3.39-1.62,1.88-3.01,2.82-4.17,2.82h-.5c-.54,0-.96-.25-1.27-.77-.25-.37-.37-.77-.38-1.21,0-1.16.89-2.78,2.69-4.88,1.8-2.1,3.25-3.15,4.37-3.15,1.05,0,1.58.51,1.58,1.56,0,.27-.05.62-.15,1.04.02.06.22.09.59.08s.94-.19,1.7-.56c-.02.33-.83.8-2.44,1.43.02.08.03.16.03.26ZM95.32,54.99c-.1-.14-.28-.22-.46-.17-.67.18-1.57.94-2.68,2.28-1.28,1.55-1.92,2.69-1.92,3.42s.25,1.1.75,1.1c.89,0,2.01-.76,3.37-2.27,1.18-1.32,1.85-2.31,2-2.98.03-.15-.03-.29-.15-.39-.26-.19-.56-.52-.91-.99Z"/>
    <path class="cls-11" d="M104.46,53.24c.52,0,.78.2.78.6,0,.12-.03.23-.09.35-.97,1.37-1.73,2.55-2.26,3.53-.22.41.3.8.63.48,3.6-3.53,5.82-5.3,6.67-5.3.1-.02.18-.03.26-.03.54,0,.81.24.81.72,0,.1-.02.19-.06.29-.04.1-.42.62-1.15,1.57-.84,1.01-1.56,1.97-2.14,2.9-.58.93-.87,1.7-.87,2.32s.14.92.41.92c.85,0,2.31-1.17,4.4-3.52.04-.04.1-.13.2-.26.29-.35.46-.52.52-.52s.09.1.09.29-.13.44-.4.75c-2.38,2.73-4.06,4.09-5.06,4.1-.94,0-1.42-.52-1.42-1.56s.38-2.24,1.14-3.59l.6-.99c.24-.39-.27-.82-.61-.51-.58.53-1.13,1.09-1.64,1.67-1.02,1.15-1.94,2.27-2.77,3.35-.83,1.08-1.32,1.62-1.45,1.62-.29,0-.52-.12-.68-.36-.16-.24-.25-.54-.25-.9s.12-.83.37-1.43c0-.02.02-.05.03-.07.17-.41-.35-.76-.66-.43l-.15.16c-.42.43-.69.64-.79.64s-.16-.06-.16-.19.08-.27.23-.42c.71-.72,1.32-1.4,1.84-2.06.5-.66,1.52-1.91,3.07-3.77.17-.23.35-.35.55-.35Z"/>
    <path class="cls-11" d="M113.65,62.73c-.23,0-.44-.03-.63-.08-1.35-.34-2.03-1.04-2.03-2.08,0-1.35.91-2.91,2.76-4.69,1.85-1.78,3.51-2.67,4.98-2.67.48,0,.88.12,1.19.36.31.24.46.57.46.98s-.13.85-.4,1.3c-.27.45-.68.68-1.23.68s-.82-.15-.82-.46c0-.21.14-.54.42-.97.28-.43.42-.67.42-.7s-.03-.04-.09-.04c-.59.06-1.39.45-2.41,1.16-1.02.72-1.72,1.32-2.09,1.8l-1.23,1.65c-.21.31-.36.68-.45,1.1-.09.42-.14.74-.14.95s.13.45.4.72c.26.27.64.4,1.12.4,1.05,0,2.36-.57,3.91-1.7,1.55-1.13,2.75-2.21,3.59-3.23.1-.12.23-.17.38-.17s.22.04.22.11-.05.17-.16.29c-1.15,1.41-2.53,2.64-4.14,3.7-1.61,1.06-2.95,1.58-4.02,1.59Z"/>
    <path class="cls-11" d="M121.67,62.63c-1.09,0-1.64-.63-1.64-1.9,0-1.04.62-2.48,1.88-4.33,1.25-1.85,2.27-2.78,3.04-2.8.21,0,.45.08.72.23.27.15.4.31.4.46-.11.14-.23.29-.38.45-.15.16-.31.34-.48.54-.17.19-.4.47-.7.83-.3.36-.59.7-.86,1.03-1.6,1.88-2.39,3.17-2.39,3.87s.27,1.05.81,1.05c.45,0,1.06-.23,1.83-.67,1.79-1.01,3.21-2.11,4.25-3.31.38-.44.64-.67.78-.67s.21.08.21.23-.24.46-.73.93c-.49.46-.88.83-1.17,1.1-.29.27-.48.45-.59.54-.11.09-.3.25-.59.49-.29.24-.51.41-.66.51-.15.1-.36.24-.64.44-.28.19-.52.33-.74.42-.21.09-.46.19-.74.31-.45.18-.98.26-1.6.27ZM128.35,50.77c.29.18.43.4.44.65s-.13.47-.4.65c-.27.18-.56.28-.88.28s-.62-.1-.88-.31c-.27-.21-.4-.45-.4-.72,0-.54.4-.81,1.22-.81.32,0,.63.09.92.27Z"/>
    <path class="cls-11" d="M143.29,62.38c-1.65,0-2.47-.79-2.48-2.39,0-.81.23-1.7.71-2.66.48-.97,1-1.78,1.57-2.43-.11.02-.25.03-.43.03-.38,0-.72-.17-1.01-.51-.18-.21-.54-.2-.72,0l-2.02,2.32c-1.36,1.49-2.14,2.23-2.36,2.24-.11,0-.16-.04-.16-.12,0-.19.18-.47.56-.84,1.88-1.94,3.22-3.58,4.01-4.92.02-.03.03-.05.04-.08.5-1.65,1.12-2.48,1.89-2.48.5,0,.76.19.76.58s-.27.88-.82,1.48l-.67.79c-.09.1-.12.24-.07.36.11.26.44.39.98.38.39,0,.83-.13,1.32-.38l.85-.47s.15-.03.33-.03.36.1.56.29c.2.19.26.37.2.52l-2.26,2.52c-1.4,1.59-2.1,2.84-2.09,3.75s.49,1.37,1.45,1.37,2.25-.48,3.71-1.43c.87-.56,1.67-1.19,2.4-1.89.68-.7,1.05-1.04,1.12-1.05.15,0,.23.07.23.22s-.1.31-.29.51l-1.05,1.05c-.59.54-1.25,1.07-1.97,1.57-1.73,1.14-3.15,1.72-4.27,1.72Z"/>
    <path class="cls-11" d="M158.94,53.36l.4-.09c.25,0,.45.08.59.23.14.15.22.27.22.36s0,.18-.03.29c-.02.11-.3.59-.83,1.46-.67,1.18-1.23,2.17-1.67,2.98-1.55,2.92-2.74,4.92-3.56,6-1.76,2.36-3.45,3.54-5.05,3.55-.56,0-1.05-.23-1.46-.7-.42-.47-.63-1-.66-1.57.06-.23.14-.35.26-.35.06,0,.11.07.15.2.1.5.28.89.55,1.15.27.27.54.4.81.4,1.1,0,2.27-.73,3.52-2.18.83-.97,1.74-2.38,2.73-4.23l.29-.58c.21-.41-.33-.79-.65-.46l-.37.38c-1.38,1.34-2.33,2-2.84,2.01s-1-.17-1.46-.52c-.52-.38-.78-.89-.79-1.53,0-1.41.98-3.09,2.95-5.04,1.97-1.95,3.76-2.93,5.38-2.94.66,0,1.08.21,1.27.63.06.15.11.28.15.39.04.11.07.16.09.16ZM150.32,60.5c0,.69.24,1.04.73,1.04,1.12,0,2.64-1.23,4.56-3.69l2.86-3.97c.15-.21.07-.51-.17-.61-.1-.04-.23-.06-.37-.06-1.2,0-2.76.93-4.7,2.78-1.94,1.85-2.91,3.35-2.9,4.51Z"/>
    <path class="cls-11" d="M162.65,62.54c-.21,0-.4-.03-.58-.08-1.23-.34-1.85-1.03-1.86-2.08,0-1.35.84-2.91,2.53-4.69,1.69-1.78,3.21-2.67,4.56-2.68.44,0,.81.12,1.09.36.28.24.42.53.42.88,0,1.08-.81,2.11-2.43,3.1-1.63.99-2.95,1.49-3.97,1.49-.15,0-.29-.02-.4-.06-.29.52-.43,1.07-.43,1.65,0,1,.48,1.5,1.44,1.5s2.19-.65,3.71-1.95c1.17-.95,2.17-1.96,3-3.02.17-.23.32-.35.45-.35s.19.06.19.17-.08.28-.23.49c-1.04,1.37-2.28,2.59-3.75,3.66-1.46,1.07-2.7,1.6-3.72,1.6ZM168.08,54.19c0-.23-.25-.35-.74-.34s-1.19.38-2.09,1.14c-1.21,1.01-2.15,2.06-2.82,3.16.12.04.24.06.38.06.73,0,1.71-.4,2.93-1.18,1.22-.79,1.98-1.64,2.29-2.57.04-.1.06-.18.06-.26Z"/>
    <path class="cls-11" d="M83.61,53.83c-1.2-.01-2.21-.29-3.03-.82-.82-.54-1.22-1.21-1.21-2.02,0-1.02.71-2.04,2.1-3.05.24-.17.42-.26.54-.26s.18.04.18.12c0,.18-.14.33-.43.44-.04.01-.08.03-.11.06-1.1.84-1.65,1.7-1.66,2.58,0,.64.29,1.17.89,1.61s1.35.66,2.25.67c1.96.02,3.82-.87,5.58-2.67.91-.94,1.37-2.02,1.38-3.26s-.46-2.15-1.42-2.76c-.8-.55-1.88-.83-3.24-.84-1.96-.02-3.94.44-5.93,1.36-2.45,1.11-4.68,2.86-6.68,5.24-2,2.38-3,4.68-3.02,6.9-.02,1.75.59,3.11,1.82,4.08,1.23.97,2.77,1.46,4.61,1.47,2.1.02,4.17-.45,6.2-1.42,1.55-.76,2.89-1.73,4.02-2.91.32-.34.58-.52.76-.51.12,0,.18.1.18.31s-.11.41-.34.62c-1.07,1.07-2.61,2.1-4.63,3.08-2.48,1.23-4.96,1.83-7.45,1.81s-4.34-.83-5.55-2.42c-.81-1.05-1.21-2.3-1.2-3.74,0-.64.09-1.32.26-2.05.56-2.46,2.01-4.85,4.33-7.16,1.68-1.66,3.66-2.95,5.96-3.86,2.29-.91,4.46-1.36,6.5-1.34,1.08.01,2.02.14,2.82.4,2.18.68,3.26,2.01,3.24,3.99-.01,1.21-.39,2.26-1.14,3.14-1.86,2.16-4.07,3.23-6.61,3.21Z"/>
    <path class="cls-11" d="M97.62,56.29c0,.68-.68,1.81-2.06,3.39-1.62,1.88-3.01,2.82-4.17,2.82h-.5c-.54,0-.96-.25-1.27-.77-.25-.37-.37-.77-.38-1.21,0-1.16.89-2.78,2.69-4.88,1.8-2.1,3.25-3.15,4.37-3.15,1.05,0,1.58.51,1.58,1.56,0,.27-.05.62-.15,1.04.02.06.22.09.59.08s.94-.19,1.7-.56c-.02.33-.83.8-2.44,1.43.02.08.03.16.03.26ZM95.75,55c-.1-.14-.28-.22-.46-.17-.67.18-1.57.94-2.68,2.28-1.28,1.55-1.92,2.69-1.92,3.42s.25,1.1.75,1.1c.89,0,2.01-.76,3.37-2.27,1.18-1.32,1.85-2.31,2-2.98.03-.15-.03-.29-.15-.39-.26-.19-.56-.52-.91-.99Z"/>
    <path class="cls-11" d="M104.86,53.25c.52,0,.78.2.78.6,0,.12-.03.23-.09.35-.97,1.37-1.73,2.55-2.26,3.53-.22.41.3.8.63.48,3.6-3.53,5.82-5.3,6.67-5.3.1-.02.18-.03.26-.03.54,0,.81.24.81.72,0,.1-.02.19-.06.29-.04.1-.42.62-1.15,1.57-.84,1.01-1.56,1.97-2.14,2.9-.58.93-.87,1.7-.87,2.32s.14.92.41.92c.85,0,2.31-1.17,4.4-3.52.04-.04.1-.13.2-.26.29-.35.46-.52.52-.52s.09.1.09.29-.13.44-.4.75c-2.38,2.73-4.06,4.09-5.06,4.1-.94,0-1.42-.52-1.42-1.56s.38-2.24,1.14-3.59l.6-.99c.24-.39-.27-.82-.61-.51-.58.53-1.13,1.09-1.64,1.67-1.02,1.15-1.94,2.27-2.77,3.35-.83,1.08-1.32,1.62-1.45,1.62-.29,0-.52-.12-.68-.36-.16-.24-.25-.54-.25-.9s.12-.83.37-1.43c0-.02.02-.05.03-.07.17-.41-.35-.76-.66-.43l-.15.16c-.42.43-.69.64-.79.64s-.16-.06-.16-.19.08-.27.23-.42c.71-.72,1.32-1.4,1.84-2.06.5-.66,1.52-1.91,3.07-3.77.17-.23.35-.35.55-.35Z"/>
    <path class="cls-11" d="M114.09,62.73c-.23,0-.44-.03-.63-.08-1.35-.34-2.03-1.04-2.03-2.08,0-1.35.91-2.91,2.76-4.69,1.85-1.78,3.51-2.67,4.98-2.67.48,0,.88.12,1.19.36.31.24.46.57.46.98s-.13.85-.4,1.3c-.27.45-.68.68-1.23.68s-.82-.15-.82-.46c0-.21.14-.54.42-.97.28-.43.42-.67.42-.7s-.03-.04-.09-.04c-.59.06-1.39.45-2.41,1.16-1.02.72-1.72,1.32-2.09,1.8l-1.23,1.65c-.21.31-.36.68-.45,1.1-.09.42-.14.74-.14.95s.13.45.4.72c.26.27.64.4,1.12.4,1.05,0,2.36-.57,3.91-1.7,1.55-1.13,2.75-2.21,3.59-3.23.1-.12.23-.17.38-.17s.22.04.22.11-.05.17-.16.29c-1.15,1.41-2.53,2.64-4.14,3.7-1.61,1.06-2.95,1.58-4.02,1.59Z"/>
    <path class="cls-11" d="M122.12,62.64c-1.09,0-1.64-.63-1.64-1.9,0-1.04.62-2.48,1.88-4.33,1.25-1.85,2.27-2.78,3.04-2.8.21,0,.45.08.72.23.27.15.4.31.4.46-.11.14-.23.29-.38.45-.15.16-.31.34-.48.54-.17.19-.4.47-.7.83-.3.36-.59.7-.86,1.03-1.6,1.88-2.39,3.17-2.39,3.87s.27,1.05.81,1.05c.45,0,1.06-.23,1.83-.67,1.79-1.01,3.21-2.11,4.25-3.31.38-.44.64-.67.78-.67s.21.08.21.23-.24.46-.73.93c-.49.46-.88.83-1.17,1.1-.29.27-.48.45-.59.54-.11.09-.3.25-.59.49-.29.24-.51.41-.66.51-.15.1-.36.24-.64.44-.28.19-.52.33-.74.42-.21.09-.46.19-.74.31-.45.18-.98.26-1.6.27ZM128.79,50.78c.29.18.43.4.44.65s-.13.47-.4.65c-.27.18-.56.28-.88.28s-.62-.1-.88-.31c-.27-.21-.4-.45-.4-.72,0-.54.4-.81,1.22-.81.32,0,.63.09.92.27Z"/>
    <g>
      <path class="cls-11" d="M129.1,62.64c-.23,0-.45-.03-.64-.08-1.36-.34-2.04-1.03-2.05-2.07,0-1.35.92-2.91,2.79-4.7,1.86-1.78,3.54-2.67,5.02-2.68.49,0,.89.12,1.2.36.31.24.46.53.47.88,0,1.08-.89,2.11-2.68,3.1-1.79.99-3.25,1.49-4.38,1.49-.17,0-.32-.02-.45-.06-.32.52-.47,1.07-.47,1.65,0,1,.53,1.5,1.58,1.5s2.41-.65,4.09-1.95c1.29-.95,2.39-1.96,3.3-3.02.19-.23.35-.35.49-.35s1.18-.05,1.18.07-1.06.38-1.23.59c-1.14,1.37-2.52,2.59-4.13,3.66-1.61,1.07-2.98,1.6-4.1,1.61ZM135.09,54.29c0-.23-.27-.35-.81-.34s-1.31.38-2.31,1.14c-1.33,1.01-2.37,2.06-3.11,3.16.13.04.27.06.41.06.81,0,1.88-.4,3.23-1.18,1.35-.79,2.19-1.64,2.52-2.57.04-.1.06-.18.06-.26Z"/>
      <path class="cls-11" d="M129.54,62.65c-.23,0-.45-.03-.64-.08-1.36-.34-2.04-1.03-2.05-2.07,0-1.35.92-2.91,2.79-4.7,1.86-1.78,3.54-2.67,5.02-2.68.49,0,.89.12,1.2.36.31.24.46.53.47.88,0,1.08-.89,2.11-2.68,3.1-1.79.99-3.25,1.49-4.38,1.49-.17,0-.32-.02-.45-.06-.32.52-.47,1.07-.47,1.65,0,1,.53,1.5,1.58,1.5s2.41-.65,4.09-1.95c1.29-.95,2.39-1.96,3.3-3.02.19-.23.35-.35.49-.35s.2.06.21.17c0,.15-.05.36-.25.49-1.14,1.37-2.52,2.59-4.13,3.66-1.61,1.07-2.98,1.6-4.1,1.61ZM135.53,54.3c0-.23-.27-.35-.81-.34s-1.31.38-2.31,1.14c-1.33,1.01-2.37,2.06-3.11,3.16.13.04.27.06.41.06.81,0,1.88-.4,3.23-1.18,1.35-.79,2.19-1.64,2.52-2.57.04-.1.06-.18.06-.26Z"/>
      <path class="cls-11" d="M129.98,62.66c-.23,0-.45-.03-.64-.08-1.36-.34-2.04-1.03-2.05-2.07,0-1.35.92-2.91,2.79-4.7,1.86-1.78,3.54-2.67,5.02-2.68.49,0,.89.12,1.2.36.31.24.46.53.47.88,0,1.08-.89,2.11-2.68,3.1-1.79.99-3.25,1.49-4.38,1.49-.17,0-.32-.02-.45-.06-.32.52-.47,1.07-.47,1.65,0,1,.53,1.5,1.58,1.5s2.41-.65,4.09-1.95c1.29-.95,2.39-1.96,3.3-3.02.19-.23.35-.35.49-.35s.21.06.21.17-.08.28-.25.49c-1.14,1.37-2.52,2.59-4.13,3.66-1.61,1.07-2.98,1.6-4.1,1.61ZM135.97,54.31c0-.23-.27-.35-.81-.34s-1.31.38-2.31,1.14c-1.33,1.01-2.37,2.06-3.11,3.16.13.04.27.06.41.06.81,0,1.88-.4,3.23-1.18,1.35-.79,2.19-1.64,2.52-2.57.04-.1.06-.18.06-.26Z"/>
      <path class="cls-11" d="M130.42,62.67c-.23,0-.45-.03-.64-.08-1.36-.34-2.04-1.03-2.05-2.07,0-1.35.92-2.91,2.79-4.7,1.86-1.78,3.54-2.67,5.02-2.68.49,0,.89.12,1.2.36.31.24.46.53.47.88,0,1.08-.89,2.11-2.68,3.1-1.79.99-3.25,1.49-4.38,1.49-.17,0-.32-.02-.45-.06-.32.52-.47,1.07-.47,1.65,0,1,.53,1.5,1.58,1.5s2.41-.65,4.09-1.95c1.29-.95,2.39-1.96,3.3-3.02.19-.23.35-.35.49-.35s.21.06.21.17-.08.28-.25.49c-1.14,1.37-2.52,2.59-4.13,3.66-1.61,1.07-2.98,1.6-4.1,1.61ZM136.41,54.32c0-.23-.27-.35-.81-.34s-1.31.38-2.31,1.14c-1.33,1.01-2.37,2.06-3.11,3.16.13.04.27.06.41.06.81,0,1.88-.4,3.23-1.18,1.35-.79,2.19-1.64,2.52-2.57.04-.1.06-.18.06-.26Z"/>
    </g>
    <path class="cls-11" d="M143.75,62.39c-1.65,0-2.47-.79-2.48-2.39,0-.81.23-1.7.71-2.66.48-.97,1-1.78,1.57-2.43-.11.02-.25.03-.43.03-.38,0-.72-.17-1.01-.51-.18-.21-.54-.2-.72,0l-2.02,2.32c-1.36,1.49-2.14,2.23-2.36,2.24-.11,0-1.17,0-1.17-.07,0-.19,1.19-.51,1.56-.88,1.88-1.94,3.22-3.58,4.01-4.92.02-.03.03-.05.04-.08.5-1.65,1.12-2.48,1.89-2.48.5,0,.76.19.76.58s-.27.88-.82,1.48l-.67.79c-.09.1-.12.24-.07.36.11.26.44.39.98.38.39,0,.83-.13,1.32-.38l.85-.47s.15-.03.33-.03.36.1.56.29c.2.19.26.37.2.52l-2.26,2.52c-1.4,1.59-2.1,2.84-2.09,3.75s.49,1.37,1.45,1.37,2.25-.48,3.71-1.43c.87-.56,1.67-1.19,2.4-1.89.68-.7,1.05-1.04,1.12-1.05.15,0,.23.07.23.22s-.1.31-.29.51l-1.05,1.05c-.59.54-1.25,1.07-1.97,1.57-1.73,1.14-3.15,1.72-4.27,1.72Z"/>
    <path class="cls-11" d="M159.34,53.37l.4-.09c.25,0,.45.08.59.23.14.15.22.27.22.36s0,.18-.03.29c-.02.11-.3.59-.83,1.46-.67,1.18-1.23,2.17-1.67,2.98-1.55,2.92-2.74,4.92-3.56,6-1.76,2.36-3.45,3.54-5.05,3.55-.56,0-1.05-.23-1.46-.7-.42-.47-.63-1-.66-1.57.06-.23.14-.35.26-.35.06,0,.11.07.15.2.1.5.28.89.55,1.15.27.27.54.4.81.4,1.1,0,2.27-.73,3.52-2.18.83-.97,1.74-2.38,2.73-4.23l.29-.58c.21-.41-.33-.79-.65-.46l-.37.38c-1.38,1.34-2.33,2-2.84,2.01s-1-.17-1.46-.52c-.52-.38-.78-.89-.79-1.53,0-1.41.98-3.09,2.95-5.04,1.97-1.95,3.76-2.93,5.38-2.94.66,0,1.08.21,1.27.63.06.15.11.28.15.39.04.11.07.16.09.16ZM150.72,60.51c0,.69.24,1.04.73,1.04,1.12,0,2.64-1.23,4.56-3.69l2.86-3.97c.15-.21.07-.51-.17-.61-.1-.04-.23-.06-.37-.06-1.2,0-2.76.93-4.7,2.78-1.94,1.85-2.91,3.35-2.9,4.51Z"/>
  </g>
  <g id="Layer_7" data-name="Layer 7">
    <g>
      <path class="cls-3" d="M38.18,34.41c.6,0,2.18.14,2.8.13.36,0,.33-1.8.34-2.12.28-5.45.63-14.19,3.14-16.93,1.47-1.59,3.33-2.35,5.24-2.35,2.03,0,4.06.9,5.47,2.63,2.31,2.77,2.82,7.06,2.93,12.18.11,3.18.17,6.43.17,9.62,0,4.57-.11,9.06-.39,13.63-.11,2.28-.34,4.57-1.13,6.64-1.13,2.97-3.72,5.6-7.05,5.6-.28,0-.56,0-.85-.07-3.04-.42-5.3-2.91-6.54-5.67-1.22-2.8-.85-9.58-.9-13.88,0-.43-.39-.77-.87-.77-.55,0-1.22.02-1.77.01-.46,0-.83.32-.83.73,0,2.05.13,6.01.03,7.4-.11,2.28-.34,4.57-1.13,6.64-1.07,2.97-3.67,5.6-7.05,5.6-.28,0-.56,0-.85-.07-2.99-.42-5.3-2.91-6.54-5.67-1.52-3.46-1.8-8.3-1.8-13.28,0-2.63.06-5.33.11-7.89.17-8.02.06-16.81,3.83-21.03,1.47-1.59,3.33-2.35,5.24-2.35,2.03,0,4.06.9,5.47,2.63,2.31,2.77,2.82,7.06,2.93,12.18l-.08,4.49c0,.31-.28,1.97.06,1.97Z"/>
      <g id="Snapback">
        <path class="cls-12" d="M54.89,22.05c-.04-.66.17-1.36.32-2,.08-.36.12-.69.32-1.01.16-.24.36-.47.55-.69.74-.89,1.73-1.5,2.87-1.7-1.94-5.85-6.1-13.73-19.29-14.67,0,0-19.32-1.11-20.56,18.6v-.02c-.44-.89-4.16-2.38-6.92-2.51-4.43-.2-9.11.75-11.18,3.96-.19.29.35.58.69.58h53.43c-.13-.13-.22-.3-.24-.55Z"/>
        <path class="cls-13" d="M19.15,20.49c-.44-.89-4.16-2.38-6.93-2.51-4.43-.2-9.11.75-11.18,3.96-.19.29.35.58.69.58,1.92,0,8.89,0,17.42,0"/>
        <path class="cls-7" d="M19.15,20.71c-.44-.89-4.16-2.38-6.93-2.51-4.43-.2-9.11.75-11.18,3.96-.19.29.35.58.69.58,5.23,0,47.97,0,57.38,0,.33,0,1.51-.12,1.17-1.6-1.21-5.17-3.59-17.81-20.58-19.02,0,0-20.62-1.19-20.62,20.62"/>
        <path class="cls-5" d="M19.08,22.71s.01-.14-.02-.36"/>
        <path class="cls-1" d="M58.88,16.69s-4.06.4-4.06,6.09"/>
        <path class="cls-1" d="M58.58,16.06s-4.33.92-4.33,6.62"/>
        <path class="cls-1" d="M38.46,2.09c-4.82.52-12.07,10.75-10.56,20.67"/>
        <g>
          <path class="cls-6" d="M37.67,1.99c-.31.04-.64.12-.97.23"/>
          <path class="cls-8" d="M34.89,3.2c-3.96,2.8-8.1,9.95-7.75,17.34"/>
          <path class="cls-6" d="M27.22,21.58c.03.33.08.66.13.99"/>
        </g>
        <g>
          <path class="cls-6" d="M37.95,2.45c-.29.1-.6.23-.91.4"/>
          <path class="cls-4" d="M35.45,3.97c-3.48,2.95-7.26,9.38-7.09,16.47"/>
          <path class="cls-6" d="M28.4,21.41c.02.33.06.66.1,1"/>
        </g>
        <path class="cls-1" d="M39.52,2.28c4.94.06,13.36,9.93,12.44,20.15"/>
        <g>
          <path class="cls-6" d="M39.92,1.99c.32,0,.65.03.99.11"/>
          <path class="cls-2" d="M42.63,2.74c4.48,2.32,9.76,9.71,9.98,17.75"/>
          <path class="cls-6" d="M52.61,21.42c0,.33-.02.67-.05,1"/>
        </g>
        <g>
          <path class="cls-6" d="M38.65,2.35c.32,0,.65.03.99.1"/>
          <path class="cls-2" d="M41.36,3.09c4.5,2.29,9.83,9.64,10.12,17.67"/>
          <path class="cls-6" d="M51.48,21.68c0,.33-.02.67-.04,1"/>
        </g>
        <path class="cls-10" d="M40.35,1.92c-.12-.85-.88-1.48-1.75-1.41-.79.06-1.42.67-1.51,1.43"/>
        <circle class="cls-6" cx="39.19" cy="7.3" r=".33"/>
        <circle class="cls-6" cx="39.19" cy="7.3" r=".64"/>
        <circle class="cls-6" cx="50.9" cy="7.3" r=".33"/>
        <circle class="cls-6" cx="50.9" cy="7.3" r=".64"/>
        <circle class="cls-6" cx="28.33" cy="7.3" r=".33"/>
        <circle class="cls-6" cx="28.33" cy="7.3" r=".64"/>
        <line class="cls-9" x1="54.84" y1="22.04" x2="60.33" y2="22.04"/>
      </g>
    </g>
  </g>
</svg>