<?xml version="1.0" encoding="UTF-8"?>
<svg id="Layer_1" xmlns="http://www.w3.org/2000/svg" version="1.1" viewBox="0 0 256 256">
  <!-- Generator: Adobe Illustrator 29.0.1, SVG Export Plug-In . SVG Version: 2.1.0 Build 192)  -->
  <defs>
    <style>
      .st0 {
        fill: #a4c046;
      }
    </style>
  </defs>
  <path class="st0" d="M254.3,54.8v146.2c0,29.4-23.9,53.4-53.4,53.4H54.8c-29.4,0-53.4-23.9-53.4-53.4V54.8C1.4,25.4,25.3,1.4,54.8,1.4h146.2c29.4,0,53.4,23.9,53.4,53.4ZM245.9,200.9V54.8c0-24.8-20.2-44.9-44.9-44.9H54.8c-24.8,0-44.9,20.1-44.9,44.9v146.2c0,24.8,20.1,44.9,44.9,44.9h146.2c24.8,0,44.9-20.2,44.9-44.9Z"/>
  <path class="st0" d="M142,116l62.5,83.5h-45.6l-42.1-56.3-52.1,56.3h-13.4l59.5-64.3L51.7,56.2h45.6l38.8,51.8,48-51.8h13.4l-55.4,59.8ZM184.7,189.7l-92.4-123.6h-20.9l92.4,123.6h20.9Z"/>
</svg>