<?xml version="1.0" encoding="UTF-8"?><svg id="Layer_2" xmlns="http://www.w3.org/2000/svg" width="136" height="48" viewBox="0 0 136 48"><defs><style>.cls-1{fill:none;}.cls-2{fill:#231f20;}.cls-3{isolation:isolate;}.cls-4{fill:#151515;}</style></defs><g id="About_Us_Button"><rect class="cls-1" width="136" height="48"/><g class="cls-3"><g class="cls-3"><path class="cls-2" d="M45.373,34.3301h.5391l3.2197,9.2402h-.4688l-.9028-2.5342h-4.2354l-.917,2.5342h-.4761l3.2412-9.2402ZM43.644,40.5879h4.0039l-1.9951-5.6768h-.021l-1.9878,5.6768Z"/><path class="cls-2" d="M50.252,43.5703v-9.6318h.4692v5.166c.0186-.1592.1294-.3525.3325-.5811s.4819-.4307.8364-.6055.7651-.2627,1.2319-.2627c.5132,0,.98.1182,1.3999.3535s.7563.5801,1.0083,1.0322c.252.4531.3779,1.0059.3779,1.6592s-.126,1.2061-.3779,1.6592-.5884.7959-1.0083,1.0293-.8867.3496-1.3999.3496c-.4712,0-.8867-.0908-1.2461-.2734-.3594-.1816-.6416-.3867-.8467-.6152-.2056-.2285-.3154-.4131-.3291-.5537v1.2744h-.4482ZM55.4463,40.7002c0-.541-.1074-1.0059-.3223-1.3926-.2148-.3877-.4946-.6855-.8398-.8926-.3457-.208-.7188-.3115-1.1201-.3115-.4434,0-.8506.1064-1.2217.3184-.3706.2119-.667.5117-.8887.8994s-.3325.8467-.3325,1.3789.1108.9922.3325,1.3789c.2217.3877.5181.6865.8887.8965.3711.21.7783.3145,1.2217.3145.4014,0,.7744-.1025,1.1201-.3076.3452-.2051.625-.502.8398-.8887.2148-.3877.3223-.8516.3223-1.3936Z"/><path class="cls-2" d="M59.625,43.7383c-.5601,0-1.0571-.1357-1.4912-.4062-.4336-.2705-.7744-.6348-1.022-1.0918-.2471-.457-.3711-.9658-.3711-1.5264,0-.5596.124-1.0713.3711-1.5361.2476-.4639.5884-.834,1.022-1.1094.4341-.2754.9312-.4131,1.4912-.4131s1.0557.1377,1.4873.4131.77.6455,1.0151,1.1094c.2451.4648.3677.9766.3677,1.5361,0,.5605-.1226,1.0693-.3677,1.5264s-.5835.8213-1.0151,1.0918-.9272.4062-1.4873.4062ZM59.625,43.29c.4854,0,.9102-.1133,1.2739-.3389.3643-.2266.6465-.5342.8472-.9248.2007-.3887.3008-.8262.3008-1.3125,0-.4844-.1001-.9248-.3008-1.3193-.2007-.3936-.4829-.708-.8472-.9414-.3638-.2334-.7886-.3496-1.2739-.3496s-.9111.1162-1.2773.3496c-.3667.2334-.6514.5479-.854.9414-.2031.3945-.3047.835-.3047,1.3193,0,.4863.1016.9238.3047,1.3125.2026.3906.4873.6982.854.9248.3662.2256.792.3389,1.2773.3389Z"/></g><g class="cls-3"><path class="cls-2" d="M65.8872,40.917c0,.7285.1646,1.3057.4937,1.7324.3286.4277.8174.6406,1.4663.6406.6484,0,1.1372-.2129,1.4663-.6406.3291-.4268.4932-1.0039.4932-1.7324v-3.0938h.4482v3.2129c0,.5137-.0938.9746-.2803,1.3828s-.458.7305-.8154.9658c-.3564.2354-.7939.3535-1.312.3535-.5137,0-.9497-.1182-1.3091-.3535s-.6323-.5576-.8188-.9658c-.187-.4082-.2803-.8691-.2803-1.3828v-3.2129h.4482v3.0938Z"/></g><g class="cls-3"><path class="cls-2" d="M72.1016,37.8232h1.252v-2.3594h.4482v2.3594h1.6377v.4482h-1.6377v3.8848c0,.4248.0791.7197.2383.8857.1592.165.3447.248.5596.248.2197,0,.3828-.0371.4902-.1113.1074-.0752.1699-.124.1895-.1475l.2725.3711c-.0225.0234-.0752.0625-.1533.1191-.0801.0557-.1855.1055-.3184.1504-.1338.0439-.2988.0664-.4941.0664-.3408,0-.6309-.1152-.8711-.3467-.2402-.2305-.3613-.6055-.3613-1.123v-3.9971h-1.252v-.4482Z"/><path class="cls-2" d="M86.3672,34.3301h.4404v5.7891c0,.7607-.1543,1.4121-.4619,1.9531-.3086.541-.7168.9541-1.2246,1.2393-.5098.2842-1.0664.4268-1.6738.4268-.6064,0-1.166-.1426-1.6797-.4268-.5137-.2852-.9238-.6982-1.2324-1.2393-.3076-.541-.4609-1.1924-.4609-1.9531v-5.7891h.4336v5.7686c0,.6387.1328,1.1982.3984,1.6758.2656.4785.6221.8506,1.0684,1.1172.4453.2656.9355.3984,1.4727.3984s1.0254-.1328,1.4668-.3984c.4414-.2666.793-.6387,1.0566-1.1172.2637-.4775.3965-1.0371.3965-1.6758v-5.7686Z"/><path class="cls-2" d="M90.4688,37.6553c.2383,0,.4639.0293.6787.0879.2139.0576.4053.1299.5732.2168.1689.0859.2988.1689.3926.248l-.3008.3643c-.1025-.0977-.2754-.2002-.5176-.3076-.2432-.1074-.5186-.1611-.8262-.1611-.4111,0-.7617.0889-1.0537.2656-.292.1777-.4375.4316-.4375.7627,0,.3223.1455.5781.4375.7666.292.1895.6689.3447,1.1299.4658.3457.0889.6523.1973.9209.3252.2686.1289.4795.2988.6338.5117.1543.2119.2305.4932.2305.8428,0,.2803-.0557.5264-.168.7393-.1113.2119-.2676.3877-.4648.5283-.1992.1396-.4287.2461-.6895.3184-.2617.0723-.542.1084-.8398.1084-.2852,0-.5527-.0342-.8027-.1016-.249-.0674-.4668-.1504-.6543-.248-.1855-.0986-.3311-.1914-.4336-.2803l.3223-.4131c.1211.1309.3223.2627.6016.3955.2803.1328.6133.1992,1.002.1992.4707,0,.8633-.1152,1.1758-.3467.3125-.2305.4688-.5303.4688-.8994,0-.2754-.0742-.4941-.2246-.6572-.1484-.1641-.3428-.293-.5801-.3887-.2383-.0957-.4883-.1768-.75-.2422-.252-.0645-.4863-.1416-.7031-.2305s-.4072-.1973-.5703-.3252c-.1641-.1289-.291-.2812-.3818-.459-.0908-.1768-.1357-.3828-.1357-.6162,0-.2891.0879-.543.2656-.7627s.415-.3916.7139-.5176c.2979-.126.6279-.1895.9873-.1895Z"/></g></g><path id="Vector" class="cls-4" d="M68,2.42c-2.72,0-5.38.8-7.66,2.29-2.28,1.49-4.07,3.61-5.16,6.1s-1.44,5.24-.99,7.92c.45,2.68,1.66,5.18,3.5,7.18,1.31,1.42,2.91,2.56,4.68,3.33,1.77.78,3.69,1.18,5.63,1.18s3.85-.4,5.63-1.18c1.77-.78,3.37-1.91,4.68-3.33,1.84-2,3.06-4.5,3.5-7.18.45-2.68.1-5.43-.99-7.92s-2.89-4.61-5.16-6.1c-2.28-1.49-4.94-2.28-7.66-2.29ZM68,27.64c-2.91,0-5.7-1.13-7.78-3.15.63-1.54,1.71-2.86,3.1-3.79,1.39-.93,3.02-1.42,4.69-1.42s3.3.5,4.69,1.42c1.39.93,2.46,2.25,3.1,3.79-2.09,2.02-4.88,3.15-7.78,3.15h-.02ZM65.19,13.63c0-.55.16-1.1.47-1.56s.75-.82,1.26-1.03,1.08-.27,1.62-.16c.54.11,1.04.38,1.44.77.39.39.66.89.77,1.44.11.54.05,1.11-.16,1.62-.21.51-.57.95-1.03,1.26s-1,.47-1.56.47c-.74,0-1.46-.3-1.98-.82-.53-.53-.82-1.24-.82-1.98l-.01-.01ZM77.69,22.04c-1.25-2.14-3.18-3.81-5.48-4.74.71-.81,1.18-1.81,1.34-2.87.16-1.07,0-2.16-.43-3.14-.44-.98-1.16-1.82-2.07-2.4-.91-.59-1.96-.9-3.04-.9s-2.14.31-3.04.9c-.91.59-1.63,1.42-2.07,2.4s-.6,2.07-.43,3.14c.16,1.07.63,2.06,1.34,2.87-2.3.93-4.23,2.6-5.48,4.74-1-1.7-1.53-3.63-1.53-5.61,0-2.97,1.18-5.83,3.29-7.93,2.1-2.1,4.96-3.28,7.93-3.28s5.83,1.18,7.93,3.28c2.1,2.1,3.29,4.95,3.29,7.93,0,1.97-.53,3.91-1.53,5.61h-.02Z"/></g></svg>