<?xml version="1.0" encoding="UTF-8"?><svg id="Layer_2" xmlns="http://www.w3.org/2000/svg" width="136" height="48" viewBox="0 0 136 48"><defs><style>.cls-1{fill:none;}.cls-2{fill:#231f20;}.cls-3{isolation:isolate;}.cls-4{fill:#151515;fill-rule:evenodd;}</style></defs><rect class="cls-1" width="136" height="48"/><g class="cls-3"><g class="cls-3"><path class="cls-2" d="M56.0582,41.0557h-3.668v3.8643h-1.7358v-9.2402h1.7358v3.8359h3.668v-3.8359h1.7358v9.2402h-1.7358v-3.8643Z"/><path class="cls-2" d="M63.0021,45.0879c-.6113,0-1.1562-.1309-1.6343-.3916-.4785-.2617-.853-.6201-1.1235-1.0752s-.4062-.9736-.4062-1.5576c0-.583.1357-1.1045.4062-1.5645.2705-.459.645-.8232,1.1235-1.0918.478-.2686,1.0229-.4023,1.6343-.4023.6162,0,1.1597.1338,1.6313.4023.4712.2686.8398.6328,1.106,1.0918.2656.46.3989.9814.3989,1.5645,0,.584-.1333,1.1025-.3989,1.5576-.2661.4551-.6348.8135-1.106,1.0752-.4717.2607-1.0151.3916-1.6313.3916ZM63.0021,43.6113c.2939,0,.5498-.0674.7666-.2002.2173-.1328.3853-.3174.5039-.5527.1191-.2354.1787-.5029.1787-.8018,0-.2979-.0596-.5664-.1787-.8047-.1187-.2383-.2866-.4258-.5039-.5635-.2168-.1377-.4727-.207-.7666-.207s-.5493.0693-.7661.207c-.2173.1377-.3862.3252-.5078.5635-.1211.2383-.1821.5068-.1821.8047,0,.2988.061.5664.1821.8018.1216.2354.2905.4199.5078.5527.2168.1328.4722.2002.7661.2002Z"/><path class="cls-2" d="M75.5465,39.0049c.4287,0,.8037.0908,1.123.2734.3193.1816.5693.4609.749.8359.1797.376.2695.8574.2695,1.4453v3.3604h-1.75v-3.0732c0-.4854-.0713-.8633-.2139-1.1338-.1416-.2705-.4111-.4062-.8076-.4062-.2246,0-.4297.0596-.6162.1787s-.335.293-.4443.5215c-.1104.2285-.165.5088-.165.8398v3.0732h-1.6377v-3.0732c0-.4854-.082-.8633-.2451-1.1338s-.4229-.4062-.7773-.4062c-.2285,0-.4346.0586-.6191.1748-.1846.1172-.3291.2891-.4346.5146-.1045.2266-.1572.5098-.1572.8506v3.0732h-1.7642v-5.7471h1.7642v.8398c.0518-.1445.1689-.2939.3535-.4482.1846-.1533.4141-.2852.6895-.3955.2754-.1094.5723-.1641.8896-.1641.3447,0,.6318.0586.8604.1748.2285.1172.4141.2656.5566.4443.1426.1797.251.3682.3252.5635.0654-.1816.1943-.3633.3857-.5459.1914-.1816.4316-.333.7207-.4551.2891-.1211.6045-.1816.9453-.1816Z"/><path class="cls-2" d="M81.1178,42.4424c.0146.2607.084.4941.21.6992.127.2061.3096.3672.5498.4834s.5312.1748.8721.1748c.2979,0,.5635-.0371.7939-.1123.2314-.0742.4268-.165.5879-.2725s.2793-.2148.3535-.3223l.7422,1.085c-.1357.168-.3105.3213-.5254.459-.2139.1377-.4883.2471-.8223.3291-.333.0811-.75.1221-1.249.1221-.6299,0-1.1836-.124-1.6592-.3711s-.8486-.6045-1.1162-1.0713c-.2686-.4658-.4033-1.0215-.4033-1.666,0-.5596.1201-1.0645.3613-1.5146.2402-.4512.5879-.8066,1.043-1.0684.4551-.2607,1.002-.3916,1.6416-.3916.6016,0,1.123.1152,1.5645.3467.4404.2305.7822.5684,1.0254,1.0117.2422.4434.3633.9844.3633,1.624,0,.0371-.001.1143-.0029.2305-.0029.1172-.0088.1914-.0176.2246h-4.3125ZM83.7848,41.3428c-.0039-.1494-.0498-.3105-.1357-.4824-.0869-.1729-.2217-.3203-.4062-.4414s-.4258-.1816-.7246-.1816c-.3037,0-.5518.0596-.7451.1777-.1943.1191-.3389.2627-.4346.4307s-.1523.334-.1709.4971h2.6172Z"/></g></g><g id="Icon_Set_Wireframe"><path id="Vector_503_Stroke_" class="cls-4" d="M66.265,3.9298c1-.84,2.46-.84,3.46,0l10.34,8.61c.93.77,1.46,1.91,1.46,3.12v11.58c0,2.24-1.82,4.06-4.06,4.06h-4.73c-1.12,0-2.03-.91-2.03-2.03v-8.79h-5.41v8.79c0,1.12-.91,2.03-2.03,2.03h-4.73c-2.24,0-4.06-1.82-4.06-4.06v-11.58c0-1.2.53-2.35,1.46-3.12l10.34-8.61h-.01ZM78.335,14.6198l-10.34-8.61-10.34,8.61c-.31.26-.49.64-.49,1.04v11.58c0,.75.61,1.35,1.35,1.35h4.06v-8.12c0-1.49,1.21-2.71,2.71-2.71h5.41c1.49,0,2.71,1.21,2.71,2.71v8.12h4.06c.75,0,1.35-.61,1.35-1.35v-11.58c0-.4-.18-.78-.49-1.04h.01Z"/></g></svg>